<?xml version="1.0" standalone="no"?><!DOCTYPE svg PUBLIC "-//W3C//DTD SVG 1.1//EN" "http://www.w3.org/Graphics/SVG/1.1/DTD/svg11.dtd"><svg width="100%" height="100%" viewBox="0 0 208 200" version="1.1" xmlns="http://www.w3.org/2000/svg" xmlns:xlink="http://www.w3.org/1999/xlink" xml:space="preserve" style="fill-rule:evenodd;clip-rule:evenodd;stroke-linejoin:round;stroke-miterlimit:1.41421;"><g id="bruno-logo"><circle id="Oval" cx="127.284" cy="118.905" r="80.095" style="fill:#80c0b0;"/><path id="Shape" d="M161.914,177.792c0,0 15.722,-3.156 15.786,-3.222l-1.988,-11.106l-6.965,-23.561c0,0 8.637,1.826 14.013,-2.559c6.249,-5.096 9.239,-14.297 1.159,-25.995c-4.167,-6.046 -10.323,-14.195 -26.225,-20.439c-22.827,-9.003 -35.202,-9.398 -35.202,-9.398c0,0 -11.029,-5.06 -19.877,-0.92c8.079,-1.905 1.968,14.489 24.795,23.426c15.902,6.244 18.828,39.672 18.828,39.672l15.676,34.102Z" style="fill:#f6dacb;"/><path id="Shape1" d="M93.738,174.715c0,0 0.062,-37.915 -2.164,-52.754c-1.545,-10.067 -1.112,-11.178 -0.927,-17.061c0.557,-13.336 5.069,-19.481 10.447,-22.095c-6.614,1.568 -12.858,7.321 -13.476,23.075c-0.247,5.884 -0.062,6.864 0.927,16.996c1.546,16.604 2.411,54.258 2.411,54.258l2.782,-2.419Z" style="fill:#f9d1b2;"/><g id="Layer_1_2_"><path id="Shape2" d="M167.805,184.196c0.988,-0.792 2.042,-1.518 3.162,-2.112l0.395,-0.33l0.066,-0.066c0.79,-1.519 1.844,-2.839 3.03,-4.093l0.593,-0.462l-7.576,-36.568l-14.822,-6.402c0,0 -0.329,-1.254 0.922,-0.396c6.259,4.422 22.596,5.61 27.009,2.904c6.522,-4.026 9.289,-13.003 0.989,-24.686c-4.282,-6.007 -10.606,-14.126 -26.944,-20.396c-23.451,-8.977 -36.165,-9.373 -36.165,-9.373c0,0 -30.04,-13.466 -31.555,21.254c-0.263,5.94 -0.066,6.93 0.988,17.161c1.911,19.472 2.306,43.763 1.845,65.149c0.659,0.132 1.251,0.198 1.844,0.396c2.899,0.792 5.534,2.31 7.642,4.422c3.952,0 7.905,1.189 10.935,3.763c1.12,0.066 2.306,0.198 3.426,0.396c0.988,-0.198 2.042,-0.264 3.096,-0.198c2.767,0.066 5.27,0.396 7.707,0.99c1.318,0.132 2.635,0.198 4.019,0.33c2.042,-0.858 4.282,-1.32 6.653,-1.32c0.659,0 1.318,0.066 1.977,0.132c0.988,0.066 1.976,0.132 2.898,0.33c0.329,-0.066 0.593,-0.132 0.922,-0.264c1.12,-0.33 2.306,-0.528 3.426,-0.594c5.665,-2.772 11.594,-4.885 17.457,-7.129c1.976,-1.188 3.953,-2.112 6.061,-2.838Z" style="fill:#fdf0d3;"/><path id="Shape3" d="M167.805,184.196c0.988,-0.792 2.042,-1.518 3.162,-2.112l0.395,-0.33l0.066,-0.066c0.79,-1.519 1.844,-2.839 3.03,-4.093l3.623,-2.838c0.264,-0.132 0.527,-0.33 0.857,-0.462l-2.372,-8.911c0,0 -21.41,11.683 -44.466,9.109c-29.447,-3.3 -42.358,-21.254 -42.358,-21.254c0,0 0.132,15.247 -0.264,32.343c0.725,0.132 1.384,0.264 2.108,0.462c2.899,0.792 5.534,2.31 7.642,4.422c3.952,0 7.905,1.189 10.935,3.763c1.12,0.066 2.306,0.198 3.426,0.396c0.988,-0.198 2.042,-0.264 3.096,-0.198c2.767,0.066 5.27,0.396 7.707,0.99c1.318,0.132 2.635,0.198 4.019,0.33c2.042,-0.858 4.282,-1.32 6.653,-1.32c0.659,0 1.318,0.066 1.977,0.132c0.988,0.066 1.976,0.132 2.898,0.33c0.329,-0.066 0.593,-0.132 0.922,-0.264c1.12,-0.33 2.306,-0.528 3.426,-0.594c5.665,-2.772 11.594,-4.885 17.457,-7.129c1.976,-1.056 3.953,-1.98 6.061,-2.706Z" style="fill:#ccd8de;"/></g><g id="Layer_14_1_"><path id="Shape4" d="M167.48,186.961c0.961,-0.781 1.987,-1.497 3.077,-2.083l0.385,-0.325l0.064,-0.065c0.77,-1.497 1.796,-2.799 2.95,-4.035l3.526,-2.798c0.129,-0.065 0.257,-0.131 0.385,-0.196l-2.052,-10.998c0,0 -21.16,13.016 -43.602,10.413c-19.236,-2.213 -40.716,-21.346 -40.716,-21.346c0,0 0.064,17.181 -0.257,32.864c0.706,0.131 1.347,0.261 2.052,0.456c2.821,0.781 5.386,2.278 7.438,4.36c3.847,0 7.695,1.172 10.644,3.71c1.09,0.065 2.244,0.195 3.334,0.39c0.962,-0.195 1.988,-0.26 3.014,-0.195c2.693,0.065 5.13,0.39 7.502,0.976c1.283,0.13 2.565,0.195 3.911,0.325c1.988,-0.846 4.168,-1.301 6.477,-1.236c0.641,0 1.282,0.065 1.923,0.13c0.193,0 0.385,0 0.577,0.065c0.321,-5.532 0.577,-9.436 0.577,-9.436l-0.064,9.436c0.577,0.065 1.154,0.13 1.732,0.26c0.32,-0.065 0.577,-0.13 0.897,-0.26c1.09,-0.325 2.244,-0.521 3.335,-0.586c5.514,-2.733 11.285,-4.815 16.991,-7.028c1.924,-1.171 3.848,-2.082 5.9,-2.798Z" style="fill:#fff;"/><path id="Shape5" d="M91.304,188.457c0.706,0.131 1.347,0.261 2.052,0.456c0.641,0.195 1.219,0.39 1.86,0.651l0,-0.651c0.128,-5.857 0.128,-30.131 0.128,-30.131l-3.783,-3.124c0,-0.065 0.064,17.116 -0.257,32.799Z" style="fill:#ccd8de;"/></g><g id="Layer_4_1_"><path id="Shape6" d="M163.209,142.374c0.442,0.255 -0.064,-0.702 -0.316,-0.255c-2.402,4.466 -19.653,19.458 -37.915,-10.017c-0.063,-0.063 0,-0.574 0,-0.638c-0.316,-0.765 -1.264,1.085 -0.632,0.766c0,0 5.498,7.72 7.457,17.162c1.137,5.231 4.233,17.864 18.135,11.165c8.026,-3.956 13.271,-18.183 13.271,-18.183Z" style="fill:#b11f24;"/><path id="Shape7" d="M152.15,133.697l0,1.978l9.605,2.68l-9.605,-4.658Z" style="fill:#280e0f;"/><path id="Shape8" d="M145.957,132.613l-0.821,2.297l-15.356,-2.297l16.177,0Z" style="fill:#280e0f;"/><path id="Shape9" d="M163.209,142.374c0.442,0.255 -0.064,-0.702 -0.316,-0.255c-2.402,4.466 -19.653,19.458 -37.915,-10.017c-0.063,-0.063 0.189,-1.467 0.189,-1.595c-0.315,-0.765 -1.453,1.978 -0.821,1.723c0,0 5.498,7.72 7.457,17.162c0.442,2.169 2.085,7.145 3.096,8.485c0.948,1.34 14.218,-4.147 15.103,2.68c7.962,-3.956 13.207,-18.183 13.207,-18.183Z" style="fill:#280e0f;"/><path id="Shape10" d="M147.979,147.797l-3.412,-4.147l2.465,-10.973l-4.424,11.356" style="fill:#f5d3c0;"/></g><g id="Layer_8_1_"><path id="Shape11" d="M86.662,184.456c4.61,-8.737 14.348,-14.148 14.348,-14.148l-8.764,-5.803c-5.778,5.085 -9.544,9.975 -11.881,14.539c2.532,1.304 4.48,3.13 6.297,5.412Z" style="fill:#ccd8de;"/><path id="Shape12" d="M85.883,183.478c4.675,-8.215 14.088,-12.062 14.088,-12.062l-3.246,-4.694c-7.725,4.172 -12.205,8.802 -14.542,13.431c1.363,0.913 2.597,2.086 3.7,3.325Z" style="fill:#fff;"/><path id="Shape13" d="M89.519,153.942c0,0 1.104,1.109 3.571,3.065c9.998,7.954 39.667,26.341 81.867,8.215c0,0 -9.089,17.995 -69.272,8.672c0,0 -8.245,-1.239 -16.231,6.454l0.065,-26.406Z" style="fill:#ec2124;"/><path id="Shape14" d="M89.519,153.942l3.571,3.065l0.259,20.277c0,0 -2.596,1.891 -3.895,3.13l0.065,-26.472Z" style="fill:#cc2027;"/></g><g id="Layer_12_1_"><path id="Oval1" d="M141.667,99.832c-1.084,-8.114 -6.358,-14.074 -11.781,-13.314c-5.422,0.761 -8.94,7.955 -7.856,16.068c1.083,8.114 6.358,14.075 11.78,13.314c5.423,-0.761 8.94,-7.955 7.857,-16.068Z" style="fill:#f8d2be;"/><path id="Oval2" d="M161.035,94.251c-0.706,-6.654 -4.924,-11.643 -9.422,-11.142c-4.498,0.501 -7.572,6.301 -6.867,12.956c0.705,6.654 4.924,11.643 9.422,11.142c4.498,-0.501 7.572,-6.301 6.867,-12.956Z" style="fill:#f8d2be;"/><path id="Oval3" d="M142.406,101.899c-1.074,-8.04 -6.223,-13.957 -11.5,-13.217c-5.278,0.74 -8.687,7.858 -7.613,15.897c1.074,8.04 6.222,13.957 11.5,13.217c5.278,-0.741 8.687,-7.858 7.613,-15.897Z" style="fill:#fff;"/><path id="Oval4" d="M161.655,95.517c-0.721,-6.802 -5.011,-11.904 -9.581,-11.395c-4.57,0.508 -7.69,6.435 -6.969,13.238c0.721,6.802 5.011,11.904 9.581,11.395c4.57,-0.508 7.69,-6.435 6.969,-13.238Z" style="fill:#fff;"/><path id="Oval5" d="M138.183,107.246c-0.622,-5.008 -3.708,-8.73 -6.893,-8.315c-3.185,0.415 -5.263,4.811 -4.642,9.819c0.622,5.007 3.708,8.73 6.893,8.315c3.185,-0.415 5.263,-4.811 4.642,-9.819Z" style="fill:#010101;"/><path id="Oval6" d="M156.635,101.619c-0.192,-3.509 -2.031,-6.257 -4.107,-6.138c-2.076,0.119 -3.604,3.06 -3.412,6.57c0.191,3.509 2.03,6.257 4.106,6.138c2.077,-0.119 3.605,-3.061 3.413,-6.57Z" style="fill:#010101;"/><path id="Shape15" d="M133.256,77.47l0,-4.604l-12.354,15.234l12.354,-10.63Z" style="fill:#010101;"/><path id="Shape16" d="M145.478,75.642l14.468,4.739l-12.817,-7.854l-1.651,3.115Z" style="fill:#010101;"/><path id="Shape17" d="M125.857,99.406l6.144,7.515l-0.265,-10.358l-5.879,2.843Z" style="fill:#fff;"/><path id="Shape18" d="M150.102,95.073l3.634,5.349l0.462,-6.906l-4.096,1.557Z" style="fill:#fff;"/></g><path id="Shape19" d="M127.284,38.81c-44.206,0 -80.094,35.889 -80.094,80.095c0,44.206 35.888,80.095 80.094,80.095c44.206,0 80.095,-35.889 80.095,-80.095c0,-44.206 -35.889,-80.095 -80.095,-80.095ZM127.546,190.879c-39.621,0 -71.712,-32.09 -71.712,-71.712c0,-39.622 32.091,-71.712 71.712,-71.712c39.622,0 71.712,32.09 71.712,71.712c0,39.622 -32.09,71.712 -71.712,71.712Z" style="fill:#fff;"/><g id="Layer_6_1_"><path id="Shape20" d="M74.063,112.062l-52.822,-17.505c0,0 -18.09,-1.711 -20.853,-26.719c-3.091,-27.838 7.499,-47.121 32.956,-62.652c25.524,-15.531 40.522,10.727 42.89,13.689c8.946,11.253 17.826,32.642 29.996,42.842c0,0 9.801,9.214 13.945,18.362c0,0 -53.94,-11.254 -30.39,38.301c0.065,-0.066 -9.802,2.04 -15.722,-6.318Z" style="fill:#ccd8de;"/><path id="Shape21" d="M76.891,109.825l-51.309,-22.442c0,0 -19.734,-4.343 -19.668,-27.903c0.066,-23.56 8.814,-44.554 34.272,-56.795c25.457,-12.24 39.403,14.61 41.639,17.769c8.42,11.78 13.748,34.287 25.392,45.409c0,0 9.143,5.002 12.958,14.281c0,0 -39.797,-3.685 -29.93,39.618c0,-0.131 -7.762,-1.25 -13.354,-9.937Z" style="fill:#fff;"/><path id="Shape22" d="M76.891,109.825c0,0 -10.656,-31.589 27.957,-46.594c0,0 -31.048,15.005 -27.957,46.594Z" style="fill:#ccd8de;"/><path id="Shape23" d="M13.742,56.65c0,0 -0.592,8.555 5.131,12.504c5.196,3.62 5.065,3.62 56.308,30.602l0.329,1.645c0,0 -29.864,-13.228 -48.152,-23.692c-12.235,-6.976 -16.511,-7.699 -13.616,-21.059Z" style="fill:#ccd8de;"/><path id="Shape24" d="M68.208,4.66c0,0 5.394,4.409 9.012,8.818c1.842,3.028 10.525,19.546 17.038,32.116c4.144,7.897 7.762,13.952 7.762,13.952l1.118,0.658c0,0 -10.985,-23.824 -19.34,-39.092c-5.459,-9.345 -6.775,-13.491 -15.59,-16.452Z" style="fill:#ccd8de;"/><path id="Shape25" d="M17.623,34.669c0,0 1.513,7.108 6.841,11.846c5.328,4.739 53.677,40.013 53.677,40.013l0.198,4.278c0,0 -28.615,-21.718 -45.258,-35.012c-11.117,-8.818 -14.669,-10.463 -15.458,-21.125Z" style="fill:#ccd8de;"/><path id="Shape26" d="M39.528,12.36c0,0 6.052,2.303 10.459,7.37c4.407,5.134 39.074,52.451 39.074,52.451l1.644,-1.316c0,0 -19.734,-27.048 -32.166,-42.711c-8.42,-10.398 -10.065,-13.557 -19.011,-15.794Z" style="fill:#ccd8de;"/><path id="Shape27" d="M48.408,0.119c0,0 8.42,-0.329 12.959,5.33c4.473,5.66 37.824,60.283 37.824,60.283l2.303,-1.119c0,0 -18.485,-32.51 -30.72,-50.674c-8.223,-12.043 -9.341,-16.321 -22.366,-13.82Z" style="fill:#ccd8de;"/><path id="Oval7" d="M94.016,114.157c-2.183,-3.565 -5.887,-5.268 -8.272,-3.806c-2.385,1.462 -2.549,5.537 -0.366,9.101c2.183,3.564 5.886,5.268 8.271,3.806c2.386,-1.463 2.55,-5.537 0.367,-9.101Z" style="fill:#fbd0a2;"/><path id="Oval8" d="M94.296,114.476c-1.651,-2.696 -4.673,-3.85 -6.748,-2.577c-2.075,1.272 -2.419,4.489 -0.767,7.185c1.651,2.696 4.672,3.85 6.748,2.578c2.075,-1.272 2.418,-4.489 0.767,-7.186Z" style="fill:#fdf0d3;"/></g><g id="Layer_9_1_"><path id="Shape28" d="M117.881,77.68c0,0 -9.176,17.981 -25.708,15.093c-1.889,-0.328 -9.244,-4.331 -9.244,-4.331c0,0 13.428,-0.328 20.715,-3.478c6.95,-3.018 13.158,-8.793 13.967,-8.859c1.485,-0.131 0.27,1.575 0.27,1.575Z" style="fill:#45291f;"/><path id="Shape29" d="M119.366,79.19c0,0 -3.914,20.277 -21.93,21.655c-7.625,0.59 -16.936,-4.791 -16.936,-4.791c0,0 19.838,-0.656 26.45,-5.84c6.275,-4.922 10.864,-12.009 11.673,-12.337c1.485,-0.525 0.743,1.313 0.743,1.313Z" style="fill:#45291f;"/></g></g></svg>