<?xml version="1.0" encoding="UTF-8" standalone="no"?>
<svg width="208px" height="200px" viewBox="0 0 208 200" version="1.1" xmlns="http://www.w3.org/2000/svg" xmlns:xlink="http://www.w3.org/1999/xlink" xmlns:sketch="http://www.bohemiancoding.com/sketch/ns">
    <!-- Generator: Sketch 3.4.4 (17249) - http://www.bohemiancoding.com/sketch -->
    <title>Artboard 1</title>
    <desc>Created with Sketch.</desc>
    <defs></defs>
    <g id="Page-1" stroke="none" stroke-width="1" fill="none" fill-rule="evenodd" sketch:type="MSPage">
        <g id="Artboard-1" sketch:type="MSArtboardGroup">
            <g id="bruno-logo" sketch:type="MSLayerGroup" transform="translate(-1.000000, -1.000000)">
                <circle id="Oval" fill="#80C0B0" sketch:type="MSShapeGroup" cx="128.28436" cy="119.905213" r="80.0947867"></circle>
                <g id="Layer_3_2_" transform="translate(103.165877, 79.620853)" fill="#F6DACB" sketch:type="MSShapeGroup">
                    <path d="M75.2132701,96.1466035 C75.341511,96.0808847 75.4697519,96.0151659 75.5338723,95.9494471 L73.5461388,84.84297 L66.8776136,61.578515 C66.8776136,61.578515 75.4056314,60.7898894 80.791748,57.4382306 C87.139671,53.4293839 89.8327293,44.4259084 81.7535545,32.7279621 C77.5857262,26.6818325 71.4301645,18.5327014 55.5282966,12.2894155 C32.7014218,3.28593997 20.3261779,2.89162717 20.3261779,2.89162717 C20.3261779,2.89162717 9.29746306,-2.16872038 0.448843044,1.97156398 C8.52801784,0.0657187994 17.1201561,4.00884676 17.1201561,4.00884676 C17.1201561,4.00884676 29.4954001,4.40315956 52.3222749,13.3409163 C68.2241427,19.5842022 74.3797045,27.6676145 78.5475328,33.6480253 C86.690828,45.3459716 83.9336493,54.2837283 77.5857262,58.2268562 C73.2896571,60.921327 57.3877892,59.5412322 51.2963479,55.1380727 C50.0780597,54.2837283 50.3986618,55.9266983 50.3986618,55.9266983 L64.8257597,62.1042654 L72.1996097,98.5781991 L75.2132701,96.1466035 L75.2132701,96.1466035 Z" id="Shape"></path>
                </g>
                <g id="Layer_13_1_" transform="translate(88.000000, 83.412322)" fill="#F9D1B2" sketch:type="MSShapeGroup">
                    <path d="M6.73810014,92.3026638 C6.73810014,92.3026638 6.79991758,54.3879719 4.57449001,39.5489459 C3.02905419,29.4819415 3.46177622,28.3706488 3.64722852,22.4873345 C4.20358541,9.15182219 8.71625798,3.00702729 14.0943746,0.392220951 C7.47990933,1.96110476 1.23634865,7.71367871 0.618174325,23.4678869 C0.370904595,29.3512012 0.556356893,30.3317536 1.54543581,40.4641281 C3.09087163,57.0681484 3.95631568,94.7213597 3.95631568,94.7213597 L6.73810014,92.3026638 L6.73810014,92.3026638 Z" id="Shape"></path>
                </g>
                <g id="Layer_1_2_" transform="translate(90.000000, 83.000000)" sketch:type="MSShapeGroup">
                    <path d="M81.0021993,104.788779 C81.9903355,103.9967 83.0443474,103.270627 84.164235,102.676568 L84.5594895,102.346535 L84.6253653,102.280528 C85.4158742,100.762376 86.4698861,99.4422442 87.6556495,98.1881188 L88.2485312,97.7260726 L80.6728206,61.1584158 L65.850778,54.7557756 C65.850778,54.7557756 65.5213993,53.5016502 66.7730384,54.359736 C73.0312342,58.7821782 89.3684189,59.970297 93.7820938,57.2640264 C100.303793,53.2376238 103.070574,44.2607261 94.7702299,32.5775578 C90.4883065,26.5709571 84.164235,18.4521452 67.8270504,12.1815182 C44.3752852,3.20462046 31.6612665,2.80858086 31.6612665,2.80858086 C31.6612665,2.80858086 1.62192692,-10.6567657 0.106784789,24.0627063 C-0.15671819,30.0033003 0.040909044,30.9933993 1.09492096,41.2244224 C3.00531756,60.6963696 3.40057202,84.9867987 2.93944181,106.372937 C3.59819926,106.50495 4.19108096,106.570957 4.78396266,106.768977 C7.68249543,107.561056 10.3175252,109.079208 12.4255491,111.191419 C16.3780937,111.191419 20.3306384,112.379538 23.3609227,114.953795 C24.4808103,115.019802 25.6665737,115.151815 26.7864614,115.349835 C27.7745976,115.151815 28.8286095,115.085809 29.8826214,115.151815 C32.6494027,115.217822 35.152681,115.547855 37.5900835,116.141914 C38.9075984,116.273927 40.2251133,116.339934 41.608504,116.471947 C43.650652,115.613861 45.8904274,115.151815 48.2619542,115.151815 C48.9207116,115.151815 49.5794691,115.217822 50.2382265,115.283828 C51.2263627,115.349835 52.2144989,115.415842 53.1367593,115.613861 C53.466138,115.547855 53.729641,115.481848 54.0590197,115.349835 C55.1789074,115.019802 56.3646708,114.821782 57.4845584,114.755776 C63.1498725,111.983498 69.0786895,109.871287 74.9416308,107.627063 C76.9179031,106.438944 78.8941755,105.514851 81.0021993,104.788779 L81.0021993,104.788779 Z" id="Shape" fill="#FDF0D3"></path>
                    <path d="M81.0021993,104.788779 C81.9903355,103.9967 83.0443474,103.270627 84.164235,102.676568 L84.5594895,102.346535 L84.6253653,102.280528 C85.4158742,100.762376 86.4698861,99.4422442 87.6556495,98.1881188 L91.2788155,95.349835 C91.5423185,95.2178218 91.8058214,95.019802 92.1352002,94.8877888 L89.7636733,85.9768977 C89.7636733,85.9768977 68.3540563,97.660066 45.2975457,95.0858086 C15.8510878,91.7854785 2.93944181,73.8316832 2.93944181,73.8316832 C2.93944181,73.8316832 3.0711933,89.0792079 2.67593883,106.174917 C3.40057202,106.306931 4.05932947,106.438944 4.78396266,106.636964 C7.68249543,107.429043 10.3175252,108.947195 12.4255491,111.059406 C16.3780937,111.059406 20.3306384,112.247525 23.3609227,114.821782 C24.4808103,114.887789 25.6665737,115.019802 26.7864614,115.217822 C27.7745976,115.019802 28.8286095,114.953795 29.8826214,115.019802 C32.6494027,115.085809 35.152681,115.415842 37.5900835,116.009901 C38.9075984,116.141914 40.2251133,116.207921 41.608504,116.339934 C43.650652,115.481848 45.8904274,115.019802 48.2619542,115.019802 C48.9207116,115.019802 49.5794691,115.085809 50.2382265,115.151815 C51.2263627,115.217822 52.2144989,115.283828 53.1367593,115.481848 C53.466138,115.415842 53.729641,115.349835 54.0590197,115.217822 C55.1789074,114.887789 56.3646708,114.689769 57.4845584,114.623762 C63.1498725,111.851485 69.0786895,109.739274 74.9416308,107.49505 C76.9179031,106.438944 78.8941755,105.514851 81.0021993,104.788779 L81.0021993,104.788779 Z" id="Shape" fill="#CCD8DE"></path>
                    <path d="M3.00531756,72.9735974 C3.00531756,72.9735974 36.2066929,106.90099 89.6319219,84.0627063 C89.6319219,84.0627063 80.4093176,102.280528 19.3425022,92.8415842 C19.3425022,92.8415842 11.0421584,91.5874587 3.00531756,99.3762376 L3.00531756,72.9735974 L3.00531756,72.9735974 Z" id="Shape" fill="#EC2124"></path>
                </g>
                <g id="Layer_14_1_" transform="translate(91.791469, 156.398104)" sketch:type="MSShapeGroup">
                    <path d="M76.6880401,31.5625663 C77.6498467,30.7816368 78.6757736,30.0657848 79.765821,29.4800877 L80.1505436,29.1547004 L80.2146641,29.089623 C80.9841093,27.5928415 82.0100362,26.2912924 83.1642041,25.0548207 L86.690828,22.2564901 C86.8190689,22.1914126 86.9473097,22.1263351 87.0755506,22.0612577 L85.0236967,11.0631676 C85.0236967,11.0631676 63.8639532,24.0786588 41.4218009,21.4755606 C22.1856705,19.2629271 0.705324784,0.130154913 0.705324784,0.130154913 C0.705324784,0.130154913 0.769445219,17.3106034 0.448843044,32.9942704 C1.15416783,33.1244253 1.79537218,33.2545802 2.50069696,33.4498125 C5.3219961,34.230742 7.88681349,35.7275235 9.93866741,37.8100021 C13.7858935,37.8100021 17.6331196,38.9813963 20.5826596,41.5194171 C21.672707,41.5844946 22.8268748,41.7146495 23.9169222,41.9098819 C24.8787287,41.7146495 25.9046557,41.649572 26.9305827,41.7146495 C29.6236409,41.779727 32.0602175,42.1051142 34.4326735,42.6908113 C35.7150822,42.8209663 36.9974909,42.8860437 38.3440201,43.0161986 C40.3317536,42.1701917 42.5118483,41.7146495 44.820184,41.779727 C45.4613883,41.779727 46.1025927,41.8448044 46.743797,41.9098819 C46.9361583,41.9098819 47.1285197,41.9098819 47.320881,41.9749593 C47.6414831,36.4433755 47.8979649,32.5387282 47.8979649,32.5387282 L47.8338444,41.9749593 C48.4109284,42.0400368 48.9880123,42.1051142 49.5650962,42.2352692 C49.8856984,42.1701917 50.1421801,42.1051142 50.4627823,41.9749593 C51.5528297,41.649572 52.7069975,41.4543397 53.7970449,41.3892622 C59.3114023,38.6560091 65.0822414,36.5735305 70.7889601,34.3608969 C72.7125732,33.1895027 74.6361862,32.2784183 76.6880401,31.5625663 L76.6880401,31.5625663 Z" id="Shape" fill="#FFFFFF"></path>
                    <path d="M0.512963479,33.0593478 C1.21828826,33.1895027 1.85949261,33.3196576 2.5648174,33.51489 C3.20602175,33.7101224 3.78310566,33.9053547 4.42431001,34.1656646 L4.42431001,33.51489 C4.55255088,27.6579189 4.55255088,3.38402773 4.55255088,3.38402773 L0.769445219,0.260309825 C0.769445219,0.195232369 0.833565654,17.3756808 0.512963479,33.0593478 L0.512963479,33.0593478 Z" id="Shape" fill="#CCD8DE"></path>
                </g>
                <g id="Layer_4_1_" transform="translate(124.966825, 130.805687)" sketch:type="MSShapeGroup">
                    <path d="M39.2417062,12.5683558 C39.6840442,12.8235509 39.178515,11.8665694 38.9257504,12.3131608 C36.5244866,16.779074 19.2733017,31.7717827 1.01105845,2.29675538 C0.947867299,2.23295662 1.01105845,1.72256653 1.01105845,1.65876777 C0.695102686,0.893182647 -0.252764613,2.7433467 0.379146919,2.4243529 C0.379146919,2.4243529 5.87677725,10.1440029 7.835703,19.5862195 C8.97314376,24.8177178 12.0695103,37.4498724 25.971564,30.7510026 C33.9968404,26.7954794 39.2417062,12.5683558 39.2417062,12.5683558 L39.2417062,12.5683558 Z" id="Shape" fill="#B11F24"></path>
                    <path d="M28.1832543,3.89172439 L28.1832543,5.86948596 L37.7883096,8.5490339 L28.1832543,3.89172439 Z" id="Shape" fill="#280E0F"></path>
                    <path d="M21.9905213,2.80714546 L21.1690363,5.10390084 L5.8135861,2.80714546 L21.9905213,2.80714546 Z" id="Shape" fill="#280E0F"></path>
                    <path d="M39.2417062,12.5683558 C39.6840442,12.8235509 39.178515,11.8665694 38.9257504,12.3131608 C36.5244866,16.779074 19.2733017,31.7717827 1.01105845,2.29675538 C0.947867299,2.23295662 1.20063191,0.829383886 1.20063191,0.701786365 C0.884676145,-0.0637987605 -0.252764613,2.67954794 0.379146919,2.4243529 C0.379146919,2.4243529 5.87677725,10.1440029 7.835703,19.5862195 C8.27804107,21.7553773 9.92101106,26.7316806 10.9320695,28.0714546 C11.8799368,29.4112286 25.150079,23.9245352 26.0347551,30.7510026 C33.9968404,26.7954794 39.2417062,12.5683558 39.2417062,12.5683558 L39.2417062,12.5683558 Z" id="Shape" fill="#280E0F"></path>
                    <path d="M24.0126382,17.9912505 L20.600316,13.844331 L23.0647709,2.87094422 L18.6413902,14.2271236" id="Shape" fill="#F5D3C0"></path>
                </g>
                <g id="Layer_9_1_" transform="translate(81.364929, 76.777251)" fill="#45291F" sketch:type="MSShapeGroup">
                    <path d="M37.5162664,1.90302588 C37.5162664,1.90302588 28.3396257,19.8833394 11.8081774,16.9959898 C9.91886899,16.6678819 2.56406137,12.6649654 2.56406137,12.6649654 C2.56406137,12.6649654 15.9916459,12.3368575 23.2789782,9.18702151 C30.2289341,6.16842873 36.4366616,0.393729493 37.2463652,0.328107911 C38.7308218,0.196864747 37.5162664,1.90302588 37.5162664,1.90302588 L37.5162664,1.90302588 Z" id="Shape"></path>
                    <path d="M39.0007229,3.41232227 C39.0007229,3.41232227 35.0871556,23.6893912 17.0712507,25.0674444 C9.44654189,25.6580386 0.134950598,20.2770689 0.134950598,20.2770689 C0.134950598,20.2770689 19.9726886,19.6208531 26.5852679,14.4367481 C32.8604707,9.51512942 37.4487911,2.42799854 38.2584947,2.09989063 C39.7429512,1.57491797 39.0007229,3.41232227 39.0007229,3.41232227 L39.0007229,3.41232227 Z" id="Shape"></path>
                </g>
                <g id="Layer_8_1_" transform="translate(81.364929, 72.985782)" sketch:type="MSShapeGroup">
                    <path d="M59.6955788,26.8264592 C58.6307947,19.0130321 53.4477153,13.2727447 48.118847,14.0051685 C42.7899786,14.7375922 39.3332553,21.665373 40.3980393,29.4788001 C41.4628234,37.2922272 46.6459028,43.0325146 51.9747711,42.3000908 C57.3036395,41.5676671 60.7603628,34.6398863 59.6955788,26.8264592 L59.6955788,26.8264592 Z" id="Oval" fill="#FBD0A2"></path>
                    <path d="M78.5250016,21.4194328 C77.83184,15.0118451 73.6869089,10.2083961 69.2670389,10.690629 C64.8471689,11.172862 61.8260749,16.7581652 62.5192365,23.1657528 C63.2123982,29.5733404 67.3573293,34.3767895 71.7771992,33.8945565 C76.1970692,33.4123235 79.2181633,27.8270204 78.5250016,21.4194328 L78.5250016,21.4194328 Z" id="Oval" fill="#FBD0A2"></path>
                    <path d="M60.321353,28.3389977 C59.3051892,20.8823481 54.3631197,15.4035778 49.2829319,16.1018218 C44.202744,16.8000657 40.9082016,23.4109131 41.9243654,30.8675627 C42.9405292,38.3242122 47.8825986,43.8029825 52.9627865,43.1047386 C58.0429743,42.4064946 61.3375168,35.7956472 60.321353,28.3389977 L60.321353,28.3389977 Z" id="Oval" fill="#FFFFFF"></path>
                    <path d="M78.9899695,22.24396 C78.3122975,15.9795587 74.266609,11.2827272 69.9536714,11.7532932 C65.6407337,12.2238592 62.6937686,17.683629 63.3714406,23.9480304 C64.0491126,30.2124317 68.0948011,34.9092632 72.4077388,34.4386971 C76.7206764,33.9681311 79.6676415,28.5083613 78.9899695,22.24396 L78.9899695,22.24396 Z" id="Oval" fill="#FFFFFF"></path>
                    <path d="M60.2495488,31.5110618 C59.6386759,26.6887322 56.606054,23.1036462 53.4759982,23.5035481 C50.3459424,23.90345 48.3037411,28.1369051 48.914614,32.9592347 C49.5254869,37.7815643 52.5581088,41.3666503 55.6881646,40.9667484 C58.8182204,40.5668465 60.8604217,36.3333914 60.2495488,31.5110618 L60.2495488,31.5110618 Z" id="Oval" fill="#010101"></path>
                    <path d="M78.2040909,26.4791086 C78.0157112,23.0996754 76.208845,20.4531014 74.1683424,20.5678203 C72.1278397,20.6825392 70.6263974,23.5151091 70.8147771,26.8945424 C71.0031569,30.2739757 72.810023,32.9205496 74.8505257,32.8058308 C76.8910283,32.6911119 78.3924706,29.8585419 78.2040909,26.4791086 L78.2040909,26.4791086 Z" id="Oval" fill="#010101"></path>
                    <path d="M51.1588652,5.28120976 L51.1588652,0.847601567 L39.018373,15.5176287 L51.1588652,5.28120976 Z" id="Shape" fill="#010101"></path>
                    <path d="M63.1695124,3.52080651 L77.3875219,8.08481495 L64.7925729,0.521600964 L63.1695124,3.52080651 Z" id="Shape" fill="#010101"></path>
                    <path d="M44.2121665,28.8836534 L53.4960722,30.3180561 L46.7441408,23.0156425 L44.2121665,28.8836534 Z" id="Shape" fill="#FFFFFF"></path>
                    <path d="M67.5193144,22.5592417 L73.2974096,25.1020464 L70.1811335,19.2340356 L67.5193144,22.5592417 Z" id="Shape" fill="#FFFFFF"></path>
                    <path d="M6.29747452,112.470208 L6.29747452,112.470208 C10.9069662,103.733392 20.6453288,98.3217818 20.6453288,98.3217818 L11.8808024,92.518971 C6.10270726,97.6045804 2.33720704,102.494589 0,107.058598 C2.53197429,108.3626 4.47964682,110.188204 6.29747452,112.470208 L6.29747452,112.470208 Z" id="Shape" fill="#CCD8DE"></path>
                    <path d="M5.51840551,111.492206 C10.1928196,103.276991 19.6065701,99.4301838 19.6065701,99.4301838 L16.3604493,94.7357751 C8.63468156,98.9085829 4.15503473,103.537791 1.8178277,108.167 C3.18119847,109.079802 4.4147244,110.253404 5.51840551,111.492206 L5.51840551,111.492206 Z" id="Shape" fill="#FFFFFF"></path>
                    <path d="M9.1540609,81.9565515 C9.1540609,81.9565515 10.257742,83.0649536 12.7247939,85.0209572 C22.7228462,92.9753719 52.3923911,111.361806 94.5919626,93.2361724 C94.5919626,93.2361724 85.5028241,111.231406 25.3197429,101.907788 C25.3197429,101.907788 17.0745959,100.668986 9.08913848,108.3626 L9.1540609,81.9565515 L9.1540609,81.9565515 Z" id="Shape" fill="#EC2124"></path>
                    <path d="M9.1540609,81.9565515 L12.7247939,85.0209572 L12.9844835,105.298195 C12.9844835,105.298195 10.3875868,107.188998 9.08913848,108.4278 L9.1540609,81.9565515 L9.1540609,81.9565515 Z" id="Shape" fill="#CC2027"></path>
                </g>
                <g id="Layer_11_1_" transform="translate(109.800948, 181.990521)" fill="#280E0F" sketch:type="MSShapeGroup">
                    <g id="Group">
                        <path d="M4.49231653,5.65273589 C4.16199914,5.58380009 3.9638087,5.37699268 3.9638087,5.03231366 C4.02987218,4.61869884 4.2941261,4.27401982 4.8886974,3.9982766 L4.95476088,4.13614821 C4.49231653,4.41189143 4.16199914,4.68763464 4.09593566,5.03231366 C4.09593566,5.23912107 4.16199914,5.37699268 4.2941261,5.37699268 C4.8886974,5.44592848 5.68145914,4.27401982 5.74752262,3.58466178 C5.8135861,3.23998277 5.68145914,3.03317536 5.48326871,2.89530375 C5.28507827,2.96423955 5.21901479,2.96423955 5.15295131,2.96423955 C5.02082436,2.96423955 4.95476088,2.89530375 4.95476088,2.82636794 C4.95476088,2.68849634 5.08688784,2.68849634 5.21901479,2.68849634 C5.28507827,2.68849634 5.41720523,2.68849634 5.54933218,2.82636794 C5.94571305,2.68849634 6.54028436,2.13700991 6.60634784,1.30978027 C6.60634784,1.03403705 6.60634784,0.896165446 6.47422088,0.758293839 C5.87964958,0.896165446 5.48326871,1.44765187 4.95476088,2.55062473 C4.42625305,3.72253339 4.02987218,4.27401982 3.56742783,4.68763464 C2.97285653,5.17018526 2.18009479,5.37699268 1.38733305,5.30805687 C0.660634784,5.23912107 0.198190435,4.75657044 0.264253914,4.20508402 C0.330317392,3.79146919 0.660634784,3.44679018 0.990952176,3.44679018 C1.25520609,3.44679018 1.38733305,3.72253339 1.38733305,3.9293408 C1.38733305,4.20508402 1.12307913,4.34295562 0.924888697,4.34295562 C0.726698262,4.41189143 0.528507827,4.41189143 0.528507827,4.54976303 C0.528507827,4.82550625 0.990952176,5.10124946 1.38733305,5.10124946 C2.18009479,5.17018526 2.51041218,4.75657044 3.56742783,3.10211116 C4.55838001,1.51658768 5.08688784,1.17190866 6.27603045,0.620422232 C5.94571305,0.482550625 5.74752262,0.413614821 5.28507827,0.344679018 C4.36018957,0.206807411 3.50136435,0.413614821 2.90679305,0.689358035 C2.11403131,1.10297286 1.65158696,1.65445928 1.58552348,2.13700991 C1.58552348,2.41275312 1.71765044,2.68849634 2.04796783,2.75743214 C2.37828522,2.82636794 2.90679305,2.48168893 3.3692374,1.9991383 C3.83168175,1.51658768 3.9638087,1.17190866 4.02987218,0.689358035 L4.16199914,0.689358035 L4.16199914,0.965101249 C4.02987218,2.27488152 3.23711044,3.10211116 2.18009479,2.96423955 C1.65158696,2.89530375 1.38733305,2.55062473 1.45339652,2.06807411 C1.58552348,0.758293839 3.63349131,-0.0689358035 5.35114175,0.137871607 C5.87964958,0.206807411 6.27603045,0.344679018 6.67241132,0.482550625 L7.13485567,0.344679018 L7.20091914,0.482550625 L6.87060175,0.551486428 C7.26698262,0.827229642 7.46517306,1.10297286 7.39910958,1.51658768 C7.3330461,2.13700991 6.67241132,2.61956053 5.8135861,2.75743214 C6.34209393,3.10211116 6.54028436,3.44679018 6.47422088,3.9293408 C6.47422088,4.89444205 5.41720523,5.7906075 4.49231653,5.65273589 L4.49231653,5.65273589 Z" id="Shape"></path>
                        <path d="M8.05974436,6.06635071 C7.72942697,5.99741491 7.53123654,5.7906075 7.59730001,5.37699268 C7.66336349,4.96337785 7.79549045,4.82550625 8.52218871,4.06721241 C8.65431567,3.9293408 8.72037915,3.860405 8.72037915,3.79146919 C8.72037915,3.65359759 8.65431567,3.58466178 8.45612523,3.44679018 C8.19187132,3.72253339 7.53123654,4.34295562 7.20091914,4.61869884 C7.06879219,4.75657044 7.00272871,4.75657044 6.93666523,4.75657044 C6.87060175,4.75657044 6.87060175,4.68763464 6.87060175,4.68763464 C6.87060175,4.61869884 6.93666523,4.61869884 7.06879219,4.48082723 C7.66336349,3.9982766 8.19187132,3.44679018 8.2579348,3.30891857 L8.2579348,3.10211116 C8.2579348,2.96423955 8.39006175,2.82636794 8.52218871,2.82636794 C8.58825219,2.82636794 8.65431567,2.89530375 8.65431567,3.03317536 C8.65431567,3.10211116 8.65431567,3.10211116 8.58825219,3.23998277 L8.58825219,3.30891857 C8.58825219,3.37785437 8.65431567,3.44679018 8.91856958,3.58466178 C9.1828235,3.72253339 9.31495045,3.860405 9.31495045,4.13614821 C9.31495045,4.41189143 9.05069654,4.68763464 8.78644263,4.96337785 C8.52218871,5.23912107 8.32399828,5.58380009 8.2579348,5.72167169 C8.2579348,5.7906075 8.2579348,5.8595433 8.32399828,5.8595433 C8.45612523,5.8595433 8.72037915,5.72167169 9.38101393,5.17018526 C9.57920437,5.03231366 9.57920437,4.96337785 9.64526784,5.03231366 C9.71133132,5.03231366 9.71133132,5.10124946 9.71133132,5.10124946 C9.71133132,5.10124946 9.64526784,5.17018526 9.51314089,5.30805687 C9.38101393,5.30805687 8.65431567,6.13528651 8.05974436,6.06635071 L8.05974436,6.06635071 Z" id="Shape"></path>
                        <path d="M12.0235531,6.54890134 C11.6932357,6.47996553 11.4950452,6.27315812 11.5611087,5.9284791 C11.5611087,5.65273589 11.7592992,5.37699268 12.0235531,5.03231366 C11.0986644,5.99741491 10.63622,6.34209393 10.1737757,6.27315812 C9.90952176,6.27315812 9.71133132,5.99741491 9.7773948,5.65273589 C9.84345828,5.30805687 10.1077122,4.89444205 10.5701565,4.27401982 C10.1737757,4.61869884 9.84345828,4.89444205 9.7773948,4.89444205 C9.64526784,5.03231366 9.57920437,5.03231366 9.57920437,5.03231366 C9.51314089,5.03231366 9.51314089,4.96337785 9.51314089,4.96337785 C9.51314089,4.89444205 9.57920437,4.89444205 9.64526784,4.82550625 C9.84345828,4.68763464 10.3059026,4.27401982 11.0326009,3.58466178 L12.0235531,3.72253339 C11.9574896,3.860405 10.4380296,5.72167169 10.4380296,5.9284791 C10.4380296,5.99741491 10.4380296,5.99741491 10.5040931,5.99741491 C10.8344105,6.06635071 12.0896165,4.75657044 12.8823783,3.79146919 L13.807267,3.9293408 L13.0145052,5.03231366 C12.4199339,5.7906075 12.287807,5.99741491 12.287807,6.20422232 C12.287807,6.27315812 12.287807,6.27315812 12.3538705,6.27315812 C12.4859974,6.27315812 12.8163148,6.13528651 13.6090765,5.51486428 C13.67514,5.44592848 13.7412035,5.37699268 13.807267,5.37699268 C13.8733305,5.37699268 13.8733305,5.44592848 13.8733305,5.44592848 C13.8733305,5.51486428 13.807267,5.51486428 13.7412035,5.58380009 C13.3448226,5.8595433 12.5520609,6.61783714 12.0235531,6.54890134 L12.0235531,6.54890134 Z" id="Shape"></path>
                        <path d="M16.5158696,7.10038776 C16.1855522,7.03145196 15.9873618,6.82464455 15.9873618,6.47996553 C16.0534252,6.13528651 16.2516157,5.7906075 16.6479966,5.37699268 C17.0443774,4.89444205 17.1104409,4.82550625 17.1104409,4.75657044 C17.1104409,4.68763464 17.1104409,4.68763464 17.0443774,4.68763464 C16.6479966,4.61869884 15.4588539,5.7906075 14.5339652,6.89358035 L13.67514,6.82464455 C14.0054574,6.34209393 15.1285366,4.89444205 15.1285366,4.68763464 C15.1285366,4.61869884 15.1285366,4.61869884 15.0624731,4.61869884 C14.8642826,4.61869884 14.1375844,5.30805687 13.807267,5.65273589 C13.67514,5.72167169 13.6090765,5.7906075 13.6090765,5.7906075 C13.5430131,5.7906075 13.5430131,5.72167169 13.5430131,5.72167169 C13.5430131,5.65273589 13.5430131,5.65273589 13.67514,5.58380009 C14.0054574,5.30805687 14.8642826,4.27401982 15.4588539,4.34295562 C15.6570444,4.34295562 15.8552348,4.54976303 15.7891713,4.82550625 C15.7231079,5.17018526 15.5249174,5.58380009 15.1285366,6.06635071 C16.2516157,4.96337785 16.846187,4.48082723 17.3086313,4.54976303 C17.5728853,4.54976303 17.7710757,4.82550625 17.7050122,5.17018526 C17.6389487,5.51486428 17.5728853,5.65273589 17.1765044,6.20422232 C16.7801235,6.75570875 16.6479966,6.82464455 16.6479966,6.96251616 C16.6479966,7.03145196 16.6479966,7.03145196 16.71406,7.03145196 C16.846187,7.03145196 17.1104409,6.89358035 17.9032026,6.20422232 C17.9692661,6.13528651 18.0353296,6.13528651 18.0353296,6.13528651 C18.1013931,6.13528651 18.1013931,6.20422232 18.1013931,6.20422232 C18.1013931,6.27315812 18.0353296,6.27315812 17.9692661,6.34209393 C17.8371392,6.34209393 17.0443774,7.10038776 16.5158696,7.10038776 L16.5158696,7.10038776 Z" id="Shape"></path>
                        <path d="M19.0262818,7.30719517 C18.5638374,7.23825937 18.23352,6.82464455 18.2995835,6.34209393 C18.2995835,6.13528651 18.365647,5.99741491 18.5638374,5.72167169 C18.2995835,5.9284791 18.4317105,5.7906075 18.1674566,5.99741491 C18.1013931,6.06635071 18.1013931,6.06635071 18.0353296,6.06635071 C17.9692661,6.06635071 17.9692661,6.06635071 17.9692661,5.99741491 C17.9692661,5.99741491 18.1013931,5.8595433 18.23352,5.7906075 C18.7620279,5.37699268 19.6208531,4.68763464 20.4136148,4.75657044 C20.8760592,4.82550625 21.1403131,5.10124946 21.0742496,5.51486428 C21.0081861,5.9284791 20.6778687,6.41102973 20.2154244,6.82464455 C20.2154244,6.89358035 20.2814879,6.89358035 20.2814879,6.89358035 C20.4136148,6.89358035 20.5457418,6.82464455 21.2063766,6.34209393 C21.27244,6.27315812 21.27244,6.27315812 21.3385035,6.27315812 C21.404567,6.27315812 21.404567,6.34209393 21.404567,6.34209393 C21.404567,6.41102973 21.3385035,6.41102973 21.27244,6.47996553 C21.1403131,6.54890134 20.4796783,7.16932357 20.1493609,7.10038776 C20.0832974,7.10038776 20.017234,7.03145196 19.9511705,7.03145196 C19.6208531,7.30719517 19.3565992,7.37613098 19.0262818,7.30719517 L19.0262818,7.30719517 Z M19.75298,6.89358035 L19.75298,6.75570875 C19.75298,6.61783714 19.885107,6.54890134 20.017234,6.54890134 C20.0832974,6.54890134 20.0832974,6.54890134 20.1493609,6.61783714 C20.6778687,6.06635071 20.8760592,5.72167169 20.9421226,5.37699268 C20.9421226,5.17018526 20.8760592,4.96337785 20.6778687,4.96337785 C20.4796783,4.96337785 20.2154244,5.10124946 19.885107,5.44592848 C19.3565992,6.13528651 19.0262818,6.61783714 19.0262818,6.82464455 C19.0262818,6.96251616 19.0923453,7.03145196 19.2244722,7.10038776 C19.3565992,7.16932357 19.5547896,7.10038776 19.75298,6.89358035 L19.75298,6.89358035 Z" id="Shape"></path>
                    </g>
                </g>
                <g id="Layer_12_1_" transform="translate(121.175355, 72.985782)" sketch:type="MSShapeGroup">
                    <path d="M21.4912687,27.8461205 C20.4077703,19.7325378 15.1335943,13.7717352 9.71106707,14.5322952 C4.2885398,15.2928552 0.771061946,22.4867693 1.85456039,30.6003521 C2.93805884,38.7139348 8.21223476,44.6747374 13.634762,43.9141774 C19.0572893,43.1536173 22.5747672,35.9597032 21.4912687,27.8461205 L21.4912687,27.8461205 Z" id="Oval" fill="#F8D2BE"></path>
                    <path d="M40.8594158,22.2654705 C40.1540713,15.6110638 35.9359231,10.6225459 31.4379181,11.123304 C26.9399132,11.6240621 23.8653544,17.4244693 24.5706988,24.0788761 C25.2760433,30.7332829 29.4941915,35.7218008 33.9921965,35.2210427 C38.4902014,34.7202845 41.5647603,28.9198773 40.8594158,22.2654705 L40.8594158,22.2654705 Z" id="Oval" fill="#F8D2BE"></path>
                    <path d="M22.2306379,29.9127691 C21.1570345,21.873283 16.008102,15.9561061 10.7301755,16.6963846 C5.45224896,17.436663 2.0439717,24.5540684 3.11757518,32.5935545 C4.19117866,40.6330406 9.34011109,46.5502175 14.6180376,45.8099391 C19.8959642,45.0696606 23.3042414,37.9522552 22.2306379,29.9127691 L22.2306379,29.9127691 Z" id="Oval" fill="#FFFFFF"></path>
                    <path d="M41.4794545,23.5313947 C40.7583482,16.7289704 36.468983,11.6270081 31.8988893,12.1358429 C27.3287955,12.6446778 24.2085748,18.5716244 24.9296812,25.3740487 C25.6507875,32.1764731 29.9401527,37.2784354 34.5102464,36.7696005 C39.0803402,36.2607657 42.2005609,30.3338191 41.4794545,23.5313947 L41.4794545,23.5313947 Z" id="Oval" fill="#FFFFFF"></path>
                    <path d="M18.0072394,35.2602573 C17.38563,30.2526761 14.2997074,26.5298677 11.1146385,26.945132 C7.92956961,27.3603963 5.85147514,31.7564811 6.47308459,36.7640623 C7.09469404,41.7716434 10.1806166,45.4944518 13.3656855,45.0791875 C16.5507544,44.6639233 18.6288489,40.2678384 18.0072394,35.2602573 L18.0072394,35.2602573 Z" id="Oval" fill="#010101"></path>
                    <path d="M36.4594337,29.6332478 C36.26769,26.1239924 34.4290237,23.3757761 32.3526577,23.4949349 C30.2762917,23.6140938 28.7485034,26.5555047 28.9402472,30.0647602 C29.1319909,33.5740156 30.9706571,36.3222319 33.0470232,36.2030731 C35.1233892,36.0839142 36.6511774,33.1425033 36.4594337,29.6332478 L36.4594337,29.6332478 Z" id="Oval" fill="#010101"></path>
                    <path d="M13.0805687,5.48408937 L13.0805687,0.880162492 L0.726698262,16.1137441 L13.0805687,5.48408937 Z" id="Shape" fill="#010101"></path>
                    <path d="M25.3023122,3.65605958 L39.770214,8.39539607 L26.9538992,0.541638456 L25.3023122,3.65605958 Z" id="Shape" fill="#010101"></path>
                    <path d="M5.68145914,27.4204469 L11.8253626,34.9356804 L11.5611087,24.576845 L5.68145914,27.4204469 Z" id="Shape" fill="#FFFFFF"></path>
                    <path d="M29.9267557,23.0873392 L33.560247,28.436019 L34.0226914,21.5301286 L29.9267557,23.0873392 Z" id="Shape" fill="#FFFFFF"></path>
                </g>
                <path d="M128.28436,39.8104265 C84.078325,39.8104265 48.1895735,75.6991781 48.1895735,119.905213 C48.1895735,164.111248 84.078325,200 128.28436,200 C172.490395,200 208.379147,164.111248 208.379147,119.905213 C208.379147,75.6991781 172.490395,39.8104265 128.28436,39.8104265 L128.28436,39.8104265 Z M128.546322,191.879188 C88.9246163,191.879188 56.8343092,159.788881 56.8343092,120.167175 C56.8343092,80.5454693 88.9246163,48.4551623 128.546322,48.4551623 C168.168027,48.4551623 200.258335,80.5454693 200.258335,120.167175 C200.258335,159.788881 168.168027,191.879188 128.546322,191.879188 L128.546322,191.879188 Z" id="Shape" fill="#FFFFFF" sketch:type="MSShapeGroup"></path>
                <path d="M130.773436,47.3933649 C91.4741867,47.3933649 59.563981,79.3602508 59.563981,118.810145 C59.563981,141.259169 69.895564,161.279498 86.0468361,174.407583 C86.1122259,174.276302 86.2430054,174.145021 86.373785,174.01374 C71.5956979,160.951296 62.2449614,141.784293 62.2449614,120.451155 C62.2449614,81.0012614 94.0897773,48.9687351 133.389026,48.9687351 C146.205421,48.9687351 158.171748,52.3820371 168.56872,58.2896751 C157.64863,51.3974307 144.701456,47.3933649 130.773436,47.3933649 L130.773436,47.3933649 Z" id="Shape" fill="#74AC9E" sketch:type="MSShapeGroup"></path>
                <g id="Layer_6_1_" transform="translate(0.796209, 0.000000)" sketch:type="MSShapeGroup">
                    <path d="M74.2666977,113.062397 L21.4445912,95.5568106 C21.4445912,95.5568106 3.35482868,93.8457383 0.592028591,68.8377575 C-2.49967627,40.9999263 8.09105742,21.717457 33.5482868,6.18618471 C59.0712972,-9.34508754 74.0693549,16.9132922 76.4374692,19.8747636 C85.3836791,31.128355 94.2641079,52.5167596 106.433585,62.7173833 C106.433585,62.7173833 116.234947,71.9308499 120.379147,81.078506 C120.379147,81.078506 66.4387641,69.8249147 89.9883459,119.380203 C90.0541268,119.314392 80.1869837,121.420328 74.2666977,113.062397 L74.2666977,113.062397 Z" id="Shape" fill="#CCD8DE"></path>
                    <path d="M77.0952788,110.824841 L25.7861342,88.3834688 C25.7861342,88.3834688 6.05184782,84.0399774 6.11762878,60.4798271 C6.18340973,36.9196768 14.9322767,15.9261351 40.3895061,3.68538664 C65.8467356,-8.55536183 79.7922979,18.2953122 82.0288504,21.4542151 C90.4488126,33.2342902 95.7770699,55.7414729 107.420299,66.8634433 C107.420299,66.8634433 116.563852,71.8650394 120.379147,81.1443165 C120.379147,81.1443165 80.5816694,77.4589298 90.4488126,120.762223 C90.4488126,120.630602 82.6866599,119.511824 77.0952788,110.824841 L77.0952788,110.824841 Z" id="Shape" fill="#FFFFFF"></path>
                    <path d="M77.0952788,110.824841 C77.0952788,110.824841 66.4387641,79.2358127 105.052184,64.2310242 C105.052184,64.2310242 74.0035739,79.2358127 77.0952788,110.824841 L77.0952788,110.824841 Z" id="Shape" fill="#CCD8DE"></path>
                    <path d="M13.9455624,57.6499767 C13.9455624,57.6499767 13.3535338,66.2053385 19.0764768,70.153967 C24.2731722,73.7735432 24.1416103,73.7735432 75.384974,100.755838 L75.7138787,102.4011 C75.7138787,102.4011 45.8493254,89.1731945 27.56222,78.7093289 C15.3269624,71.7334185 11.0512004,71.0095032 13.9455624,57.6499767 L13.9455624,57.6499767 Z" id="Shape" fill="#CCD8DE"></path>
                    <path d="M68.4121928,5.65970091 C68.4121928,5.65970091 73.8062311,10.0690028 77.4241836,14.4783046 C79.2660503,17.5055865 87.9491363,34.0240159 94.4614508,46.5938168 C98.6056509,54.4910738 102.223603,60.5456376 102.223603,60.5456376 L103.34188,61.2037424 C103.34188,61.2037424 92.3564603,37.3803502 84.002279,22.1123198 C78.5424598,12.7672323 77.2268407,8.62117231 68.4121928,5.65970091 L68.4121928,5.65970091 Z" id="Shape" fill="#CCD8DE"></path>
                    <path d="M17.8266387,35.6692778 C17.8266387,35.6692778 19.3396007,42.7768092 24.667858,47.5151634 C29.9961153,52.2535177 78.3451169,87.5279326 78.3451169,87.5279326 L78.5424598,91.8056135 C78.5424598,91.8056135 49.9277445,70.0881566 33.285163,56.7944405 C22.1681817,47.9758368 18.6160102,46.3305749 17.8266387,35.6692778 L17.8266387,35.6692778 Z" id="Shape" fill="#CCD8DE"></path>
                    <path d="M39.7316966,13.3595266 C39.7316966,13.3595266 45.7835444,15.6628932 50.1908684,20.7302998 C54.5981923,25.8635169 89.2647554,73.1812489 89.2647554,73.1812489 L90.9092793,71.8650394 C90.9092793,71.8650394 71.1749929,44.8169339 58.7423925,29.1540407 C50.3224303,18.7559856 48.6779064,15.5970827 39.7316966,13.3595266 L39.7316966,13.3595266 Z" id="Shape" fill="#CCD8DE"></path>
                    <path d="M48.6121254,1.11877809 C48.6121254,1.11877809 57.0320876,0.789725708 61.5709735,6.44942661 C66.0440784,12.1091275 99.3950224,66.7318223 99.3950224,66.7318223 L101.697356,65.6130442 C101.697356,65.6130442 83.2129076,33.1026693 70.97765,14.938978 C62.7550307,2.89566093 61.6367545,-1.38201999 48.6121254,1.11877809 L48.6121254,1.11877809 Z" id="Shape" fill="#CCD8DE"></path>
                    <path d="M94.2194361,115.156572 C92.0364682,111.592453 88.3331232,109.888589 85.9477836,111.350884 C83.5624441,112.813179 83.3983895,116.887893 85.5813574,120.452012 C87.7643254,124.016131 91.4676703,125.719996 93.8530099,124.2577 C96.2383494,122.795405 96.402404,118.720691 94.2194361,115.156572 L94.2194361,115.156572 Z" id="Oval" fill="#FBD0A2"></path>
                    <path d="M94.4998143,115.47649 C92.8483516,112.780473 89.8272039,111.626392 87.7518921,112.898779 C85.6765803,114.171166 85.3329827,117.388193 86.9844454,120.08421 C88.6359081,122.780228 91.6570558,123.934308 93.7323676,122.661921 C95.8076794,121.389534 96.151277,118.172507 94.4998143,115.47649 L94.4998143,115.47649 Z" id="Oval" fill="#FDF0D3"></path>
                </g>
            </g>
        </g>
    </g>
</svg>