<?xml version="1.0" encoding="utf-8"?>
<!-- Generator: Adobe Illustrator 17.1.0, SVG Export Plug-In . SVG Version: 6.00 Build 0)  -->
<!DOCTYPE svg PUBLIC "-//W3C//DTD SVG 1.1//EN" "http://www.w3.org/Graphics/SVG/1.1/DTD/svg11.dtd">
<svg version="1.1" id="Layer_1" xmlns="http://www.w3.org/2000/svg" xmlns:xlink="http://www.w3.org/1999/xlink" x="0px" y="0px"
	 viewBox="0 0 792 612" style="enable-background:new 0 0 792 612;" xml:space="preserve">
<style type="text/css">
	.st0{fill:#80C0B0;}
	.st1{fill:#F6DACB;}
	.st2{fill:#FBD0A2;}
	.st3{fill:#F9D1B2;}
	.st4{fill:#FDF0D3;}
	.st5{fill:#CCD8DE;}
	.st6{fill:#EC2124;}
	.st7{fill:#FFFFFF;}
	.st8{fill:#B11F24;}
	.st9{fill:#280E0F;}
	.st10{fill:#F5D3C0;}
	.st11{fill:#45291F;}
	.st12{fill:#010101;}
	.st13{fill:#CC2027;}
	.st14{fill:#F8D2BE;}
	.st15{fill:#74AC9E;}
</style>
<circle class="st0" cx="368.5" cy="182.3" r="122.3"/>
<g id="Layer_3_2_">
	<g>
		<path class="st1" d="M445.3,270.3c0.2-0.1,0.4-0.2,0.5-0.3l-3.1-16.9l-10.4-35.4c0,0,13.3-1.2,21.7-6.3
			c9.9-6.1,14.1-19.8,1.5-37.6c-6.5-9.2-16.1-21.6-40.9-31.1c-35.6-13.7-54.9-14.3-54.9-14.3s-17.2-7.7-31-1.4
			c12.6-2.9,26,3.1,26,3.1s19.3,0.6,54.9,14.2c24.8,9.5,34.4,21.8,40.9,30.9c12.7,17.8,8.4,31.4-1.5,37.4c-6.7,4.1-31.5,2-41-4.7
			c-1.9-1.3-1.4,1.2-1.4,1.2l22.5,9.4l11.5,55.5L445.3,270.3z"/>
	</g>
	<path class="st2" d="M607.4,375.4"/>
</g>
<g id="Layer_13_1_">
	<g>
		<path class="st3" d="M316.9,271.2c0,0,0.1-58-3.5-80.7c-2.5-15.4-1.8-17.1-1.5-26.1c0.9-20.4,8.2-29.8,16.9-33.8
			c-10.7,2.4-20.8,11.2-21.8,35.3c-0.4,9-0.1,10.5,1.5,26c2.5,25.4,3.9,83,3.9,83L316.9,271.2z"/>
	</g>
</g>
<g id="Layer_1_2_">
	<path class="st4" d="M429.6,284.5c1.5-1.2,3.1-2.3,4.8-3.2l0.6-0.5c0,0,0.1-0.1,0.1-0.1c1.2-2.3,2.8-4.3,4.6-6.2l0.9-0.7
		l-11.5-55.4l-22.5-9.7c0,0-0.5-1.9,1.4-0.6c9.5,6.7,34.3,8.5,41,4.4c9.9-6.1,14.1-19.7,1.5-37.4c-6.5-9.1-16.1-21.4-40.9-30.9
		c-35.6-13.6-54.9-14.2-54.9-14.2s-45.6-20.4-47.9,32.2c-0.4,9-0.1,10.5,1.5,26c2.9,29.5,3.5,66.3,2.8,98.7c1,0.2,1.9,0.3,2.8,0.6
		c4.4,1.2,8.4,3.5,11.6,6.7c6,0,12,1.8,16.6,5.7c1.7,0.1,3.5,0.3,5.2,0.6c1.5-0.3,3.1-0.4,4.7-0.3c4.2,0.1,8,0.6,11.7,1.5
		c2,0.2,4,0.3,6.1,0.5c3.1-1.3,6.5-2,10.1-2c1,0,2,0.1,3,0.2c1.5,0.1,3,0.2,4.4,0.5c0.5-0.1,0.9-0.2,1.4-0.4
		c1.7-0.5,3.5-0.8,5.2-0.9c8.6-4.2,17.6-7.4,26.5-10.8C423.4,287,426.4,285.6,429.6,284.5z"/>
	<path class="st5" d="M429.6,284.5c1.5-1.2,3.1-2.3,4.8-3.2l0.6-0.5c0,0,0.1-0.1,0.1-0.1c1.2-2.3,2.8-4.3,4.6-6.2l5.5-4.3
		c0.4-0.2,0.8-0.5,1.3-0.7l-3.6-13.5c0,0-32.5,17.7-67.5,13.8c-44.7-5-64.3-32.2-64.3-32.2s0.2,23.1-0.4,49c1.1,0.2,2.1,0.4,3.2,0.7
		c4.4,1.2,8.4,3.5,11.6,6.7c6,0,12,1.8,16.6,5.7c1.7,0.1,3.5,0.3,5.2,0.6c1.5-0.3,3.1-0.4,4.7-0.3c4.2,0.1,8,0.6,11.7,1.5
		c2,0.2,4,0.3,6.1,0.5c3.1-1.3,6.5-2,10.1-2c1,0,2,0.1,3,0.2c1.5,0.1,3,0.2,4.4,0.5c0.5-0.1,0.9-0.2,1.4-0.4
		c1.7-0.5,3.5-0.8,5.2-0.9c8.6-4.2,17.6-7.4,26.5-10.8C423.4,287,426.4,285.6,429.6,284.5z"/>
	<path class="st6" d="M311.2,236.3c0,0,50.4,51.4,131.5,16.8c0,0-14,27.6-106.7,13.3c0,0-12.6-1.9-24.8,9.9L311.2,236.3z"/>
	<g id="Layer_2_2_">
	</g>
</g>
<g id="Layer_14_1_">
	<path class="st7" d="M429.6,284.5c1.5-1.2,3.1-2.3,4.8-3.2l0.6-0.5c0,0,0.1-0.1,0.1-0.1c1.2-2.3,2.8-4.3,4.6-6.2l5.5-4.3
		c0.2-0.1,0.4-0.2,0.6-0.3l-3.2-16.9c0,0-33,20-68,16c-30-3.4-63.5-32.8-63.5-32.8s0.1,26.4-0.4,50.5c1.1,0.2,2.1,0.4,3.2,0.7
		c4.4,1.2,8.4,3.5,11.6,6.7c6,0,12,1.8,16.6,5.7c1.7,0.1,3.5,0.3,5.2,0.6c1.5-0.3,3.1-0.4,4.7-0.3c4.2,0.1,8,0.6,11.7,1.5
		c2,0.2,4,0.3,6.1,0.5c3.1-1.3,6.5-2,10.1-1.9c1,0,2,0.1,3,0.2c0.3,0,0.6,0,0.9,0.1c0.5-8.5,0.9-14.5,0.9-14.5l-0.1,14.5
		c0.9,0.1,1.8,0.2,2.7,0.4c0.5-0.1,0.9-0.2,1.4-0.4c1.7-0.5,3.5-0.8,5.2-0.9c8.6-4.2,17.6-7.4,26.5-10.8
		C423.4,287,426.4,285.6,429.6,284.5z"/>
	<path class="st5" d="M310.8,286.8c1.1,0.2,2.1,0.4,3.2,0.7c1,0.3,1.9,0.6,2.9,1c0-0.4,0-0.7,0-1c0.2-9,0.2-46.3,0.2-46.3l-5.9-4.8
		C311.2,236.3,311.3,262.7,310.8,286.8z"/>
</g>
<g id="Layer_4_1_">
	<path class="st8" d="M421.1,221.7c0.7,0.4-0.1-1.1-0.5-0.4c-3.8,7-31.1,30.5-60-15.7c-0.1-0.1,0-0.9,0-1c-0.5-1.2-2,1.7-1,1.2
		c0,0,8.7,12.1,11.8,26.9c1.8,8.2,6.7,28,28.7,17.5C412.8,244,421.1,221.7,421.1,221.7z"/>
	<polygon class="st9" points="403.6,208.1 403.6,211.2 418.8,215.4 	"/>
	<polygon class="st9" points="393.8,206.4 392.5,210 368.2,206.4 	"/>
	<path class="st9" d="M421.1,221.7c0.7,0.4-0.1-1.1-0.5-0.4c-3.8,7-31.1,30.5-60-15.7c-0.1-0.1,0.3-2.3,0.3-2.5
		c-0.5-1.2-2.3,3.1-1.3,2.7c0,0,8.7,12.1,11.8,26.9c0.7,3.4,3.3,11.2,4.9,13.3c1.5,2.1,22.5-6.5,23.9,4.2
		C412.8,244,421.1,221.7,421.1,221.7z"/>
	<polyline class="st10" points="397,230.2 391.6,223.7 395.5,206.5 388.5,224.3 	"/>
</g>
<g id="Layer_9_1_">
	<path class="st11" d="M347.6,118.9c0,0-13.6,27.4-38.1,23c-2.8-0.5-13.7-6.6-13.7-6.6s19.9-0.5,30.7-5.3
		c10.3-4.6,19.5-13.4,20.7-13.5C349.4,116.3,347.6,118.9,347.6,118.9z"/>
	<path class="st11" d="M349.8,121.2c0,0-5.8,30.9-32.5,33c-11.3,0.9-25.1-7.3-25.1-7.3c0,0,29.4-1,39.2-8.9
		c9.3-7.5,16.1-18.3,17.3-18.8C350.9,118.4,349.8,121.2,349.8,121.2z"/>
</g>
<g id="Layer_8_1_">
	
		<ellipse transform="matrix(-0.1356 -0.9908 0.9908 -0.1356 273.0245 544.611)" class="st2" cx="374.1" cy="153.2" rx="21.9" ry="15"/>
	
		<ellipse transform="matrix(-0.108 -0.9941 0.9941 -0.108 306.0916 563.071)" class="st2" cx="405.7" cy="144.2" rx="17.9" ry="12.4"/>
	
		<ellipse transform="matrix(-0.1356 -0.9908 0.9908 -0.1356 272.7327 548.8186)" class="st7" cx="375.8" cy="155.4" rx="20.9" ry="14.3"/>
	
		<ellipse transform="matrix(-0.108 -0.9941 0.9941 -0.108 306.0103 565.3275)" class="st7" cx="406.6" cy="145.4" rx="17.5" ry="12.1"/>
	
		<ellipse transform="matrix(-0.1262 -0.992 0.992 -0.1262 271.0428 557.6078)" class="st12" cx="381.1" cy="159.4" rx="13.5" ry="8.8"/>
	
		<ellipse transform="matrix(-5.589186e-02 -0.9984 0.9984 -5.589186e-02 284.119 570.406)" class="st12" cx="411.7" cy="150.9" rx="9.4" ry="5.7"/>
	<polygon class="st12" points="375.8,118.1 375.8,111.3 357.1,133.8 	"/>
	<polygon class="st12" points="394.3,115.4 416.2,122.4 396.8,110.8 	"/>
	<polygon class="st7" points="365.1,154.3 379.4,156.5 369,145.3 	"/>
	<polygon class="st7" points="401,144.6 409.9,148.5 405.1,139.5 	"/>
	<path class="st5" d="M306.7,282.5C306.7,282.5,306.7,282.5,306.7,282.5c7.1-13.4,22.1-21.7,22.1-21.7l-13.5-8.9
		c-8.9,7.8-14.7,15.3-18.3,22.3C300.9,276.2,303.9,279,306.7,282.5z"/>
	<path class="st7" d="M305.5,281c7.2-12.6,21.7-18.5,21.7-18.5l-5-7.2c-11.9,6.4-18.8,13.5-22.4,20.6
		C301.9,277.3,303.8,279.1,305.5,281z"/>
	<path class="st6" d="M311.1,235.7c0,0,1.7,1.7,5.5,4.7c15.4,12.2,61.1,40.4,126.1,12.6c0,0-14,27.6-106.7,13.3c0,0-12.7-1.9-25,9.9
		L311.1,235.7z"/>
	<path class="st13" d="M311.1,235.7l5.5,4.7l0.4,31.1c0,0-4,2.9-6,4.8L311.1,235.7z"/>
</g>
<g id="Layer_11_1_">
	<g>
		<path class="st9" d="M343.8,287.2c-0.5-0.1-0.8-0.4-0.8-0.9c0.1-0.6,0.5-1.1,1.4-1.5l0.1,0.2c-0.7,0.4-1.2,0.8-1.3,1.3
			c0,0.3,0.1,0.5,0.3,0.5c0.9,0.1,2.1-1.6,2.2-2.6c0.1-0.5-0.1-0.8-0.4-1c-0.3,0.1-0.4,0.1-0.5,0.1c-0.2,0-0.3-0.1-0.3-0.2
			c0-0.2,0.2-0.2,0.4-0.2c0.1,0,0.3,0,0.5,0.2c0.6-0.2,1.5-1,1.6-2.2c0-0.4,0-0.6-0.2-0.8c-0.9,0.2-1.5,1-2.3,2.6
			c-0.8,1.7-1.4,2.5-2.1,3.1c-0.9,0.7-2.1,1-3.3,0.9c-1.1-0.1-1.8-0.8-1.7-1.6c0.1-0.6,0.6-1.1,1.1-1.1c0.4,0,0.6,0.4,0.6,0.7
			c0,0.4-0.4,0.6-0.7,0.6c-0.3,0.1-0.6,0.1-0.6,0.3c0,0.4,0.7,0.8,1.3,0.8c1.2,0.1,1.7-0.5,3.3-2.9c1.5-2.3,2.3-2.8,4.1-3.6
			c-0.5-0.2-0.8-0.3-1.5-0.4c-1.4-0.2-2.7,0.1-3.6,0.5c-1.2,0.6-1.9,1.4-2,2.1c0,0.4,0.2,0.8,0.7,0.9c0.5,0.1,1.3-0.4,2-1.1
			c0.7-0.7,0.9-1.2,1-1.9l0.2,0c0,0.1,0,0.2,0,0.4c-0.2,1.9-1.4,3.1-3,2.9c-0.8-0.1-1.2-0.6-1.1-1.3c0.2-1.9,3.3-3.1,5.9-2.8
			c0.8,0.1,1.4,0.3,2,0.5l0.7-0.2l0.1,0.2l-0.5,0.1c0.6,0.4,0.9,0.8,0.8,1.4c-0.1,0.9-1.1,1.6-2.4,1.8c0.8,0.5,1.1,1,1,1.7
			C346.8,286.1,345.2,287.4,343.8,287.2z"/>
		<path class="st9" d="M349.2,287.8c-0.5-0.1-0.8-0.4-0.7-1c0.1-0.6,0.3-0.8,1.4-1.9c0.2-0.2,0.3-0.3,0.3-0.4c0-0.2-0.1-0.3-0.4-0.5
			c-0.4,0.4-1.4,1.3-1.9,1.7c-0.2,0.2-0.3,0.2-0.4,0.2c-0.1,0-0.1-0.1-0.1-0.1c0-0.1,0.1-0.1,0.3-0.3c0.9-0.7,1.7-1.5,1.8-1.7
			c0-0.1,0-0.2,0-0.3c0-0.2,0.2-0.4,0.4-0.4c0.1,0,0.2,0.1,0.2,0.3c0,0.1,0,0.1-0.1,0.3c0,0.1,0,0.1,0,0.1c0,0.1,0.1,0.2,0.5,0.4
			c0.4,0.2,0.6,0.4,0.6,0.8c0,0.4-0.4,0.8-0.8,1.2c-0.4,0.4-0.7,0.9-0.8,1.1c0,0.1,0,0.2,0.1,0.2c0.2,0,0.6-0.2,1.6-1
			c0.3-0.2,0.3-0.3,0.4-0.2c0.1,0,0.1,0.1,0.1,0.1c0,0-0.1,0.1-0.3,0.3C351.2,286.7,350.1,287.9,349.2,287.8z"/>
		<path class="st9" d="M355.2,288.5c-0.5-0.1-0.8-0.4-0.7-0.9c0-0.4,0.3-0.8,0.7-1.3c-1.4,1.4-2.1,1.9-2.8,1.8
			c-0.4,0-0.7-0.4-0.6-0.9c0.1-0.5,0.5-1.1,1.2-2c-0.6,0.5-1.1,0.9-1.2,0.9c-0.2,0.2-0.3,0.2-0.3,0.2c-0.1,0-0.1-0.1-0.1-0.1
			c0-0.1,0.1-0.1,0.2-0.2c0.3-0.2,1-0.8,2.1-1.8l1.5,0.2c-0.1,0.2-2.4,2.9-2.4,3.2c0,0.1,0,0.1,0.1,0.1c0.5,0.1,2.4-1.8,3.6-3.2
			l1.4,0.2l-1.2,1.6c-0.9,1.1-1.1,1.4-1.1,1.7c0,0.1,0,0.1,0.1,0.1c0.2,0,0.7-0.2,1.9-1.1c0.1-0.1,0.2-0.2,0.3-0.2
			c0.1,0,0.1,0.1,0.1,0.1c0,0.1-0.1,0.1-0.2,0.2C357.2,287.5,356,288.6,355.2,288.5z"/>
		<path class="st9" d="M362,289.3c-0.5-0.1-0.8-0.4-0.8-0.9c0.1-0.5,0.4-1,1-1.6c0.6-0.7,0.7-0.8,0.7-0.9c0-0.1,0-0.1-0.1-0.1
			c-0.6-0.1-2.4,1.6-3.8,3.2l-1.3-0.1c0.5-0.7,2.2-2.8,2.2-3.1c0-0.1,0-0.1-0.1-0.1c-0.3,0-1.4,1-1.9,1.5c-0.2,0.1-0.3,0.2-0.3,0.2
			c-0.1,0-0.1-0.1-0.1-0.1c0-0.1,0-0.1,0.2-0.2c0.5-0.4,1.8-1.9,2.7-1.8c0.3,0,0.6,0.3,0.5,0.7c-0.1,0.5-0.4,1.1-1,1.8
			c1.7-1.6,2.6-2.3,3.3-2.2c0.4,0,0.7,0.4,0.6,0.9c-0.1,0.5-0.2,0.7-0.8,1.5c-0.6,0.8-0.8,0.9-0.8,1.1c0,0.1,0,0.1,0.1,0.1
			c0.2,0,0.6-0.2,1.8-1.2c0.1-0.1,0.2-0.1,0.2-0.1c0.1,0,0.1,0.1,0.1,0.1c0,0.1-0.1,0.1-0.2,0.2C364,288.2,362.8,289.3,362,289.3z"
			/>
		<path class="st9" d="M365.8,289.6c-0.7-0.1-1.2-0.7-1.1-1.4c0-0.3,0.1-0.5,0.4-0.9c-0.4,0.3-0.2,0.1-0.6,0.4
			c-0.1,0.1-0.1,0.1-0.2,0.1c-0.1,0-0.1,0-0.1-0.1c0,0,0.2-0.2,0.4-0.3c0.8-0.6,2.1-1.6,3.3-1.5c0.7,0.1,1.1,0.5,1,1.1
			c-0.1,0.6-0.6,1.3-1.3,1.9c0,0.1,0.1,0.1,0.1,0.1c0.2,0,0.4-0.1,1.4-0.8c0.1-0.1,0.1-0.1,0.2-0.1c0.1,0,0.1,0.1,0.1,0.1
			c0,0.1-0.1,0.1-0.2,0.2c-0.2,0.1-1.2,1-1.7,0.9c-0.1,0-0.2-0.1-0.3-0.1C366.7,289.6,366.3,289.7,365.8,289.6z M366.9,289
			c0-0.1,0-0.1,0-0.2c0-0.2,0.2-0.3,0.4-0.3c0.1,0,0.1,0,0.2,0.1c0.8-0.8,1.1-1.3,1.2-1.8c0-0.3-0.1-0.6-0.4-0.6
			c-0.3,0-0.7,0.2-1.2,0.7c-0.8,1-1.3,1.7-1.3,2c0,0.2,0.1,0.3,0.3,0.4C366.3,289.4,366.6,289.3,366.9,289z"/>
	</g>
</g>
<g id="Layer_12_1_">
	
		<ellipse transform="matrix(-0.1356 -0.9908 0.9908 -0.1356 273.688 545.1894)" class="st14" cx="374.7" cy="153.2" rx="21.9" ry="15"/>
	
		<ellipse transform="matrix(-0.108 -0.9942 0.9942 -0.108 307.059 563.9412)" class="st14" cx="406.5" cy="144.2" rx="17.9" ry="12.4"/>
	
		<ellipse transform="matrix(-0.1356 -0.9908 0.9908 -0.1356 272.4345 550.0806)" class="st7" cx="376.2" cy="156.2" rx="21.7" ry="14.6"/>
	
		<ellipse transform="matrix(-0.108 -0.9941 0.9941 -0.108 306.012 566.7924)" class="st7" cx="407.3" cy="146.1" rx="18.3" ry="12.6"/>
	
		<ellipse transform="matrix(-0.1262 -0.992 0.992 -0.1262 261.0342 556.381)" class="st12" cx="375.6" cy="163.2" rx="13.5" ry="8.8"/>
	
		<ellipse transform="matrix(-5.590734e-02 -0.9984 0.9984 -5.590734e-02 275.3705 568.5519)" class="st12" cx="406.5" cy="154.1" rx="9.4" ry="5.7"/>
	<polygon class="st12" points="375.8,118.1 375.8,111.3 357.1,133.8 	"/>
	<polygon class="st12" points="394.3,115.4 416.2,122.4 396.8,110.8 	"/>
	<polygon class="st7" points="364.6,150.5 373.9,161.6 373.5,146.3 	"/>
	<polygon class="st7" points="401.3,144.1 406.8,152 407.5,141.8 	"/>
</g>
<path class="st7" d="M368.5,60c-67.5,0-122.3,54.8-122.3,122.3s54.8,122.3,122.3,122.3s122.3-54.8,122.3-122.3S436,60,368.5,60z
	 M368.9,292.2c-60.5,0-109.5-49-109.5-109.5s49-109.5,109.5-109.5s109.5,49,109.5,109.5S429.4,292.2,368.9,292.2z"/>
<path class="st15" d="M368.2,74.4c-60.1,0-108.9,48.7-108.9,108.8c0,34.2,15.8,64.7,40.5,84.7c0.1-0.2,0.3-0.4,0.5-0.6
	c-22.6-19.9-36.9-49.1-36.9-81.6c0-60.1,48.7-108.9,108.8-108.9c19.6,0,37.9,5.2,53.8,14.2C409.3,80.5,389.5,74.4,368.2,74.4z"/>
<g id="Layer_6_1_">
	<path class="st5" d="M284.9,173.8l-80.3-26.6c0,0-27.5-2.6-31.7-40.6C168.2,64.3,184.3,35,223,11.4c38.8-23.6,61.6,16.3,65.2,20.8
		c13.6,17.1,27.1,49.6,45.6,65.1c0,0,14.9,14,21.2,27.9c0,0-82-17.1-46.2,58.2C308.9,183.3,293.9,186.5,284.9,173.8z"/>
	<path class="st7" d="M289.2,170.4l-78-34.1c0,0-30-6.6-29.9-42.4c0.1-35.8,13.4-67.7,52.1-86.3c38.7-18.6,59.9,22.2,63.3,27
		c12.8,17.9,20.9,52.1,38.6,69c0,0,13.9,7.6,19.7,21.7c0,0-60.5-5.6-45.5,60.2C309.5,185.3,297.7,183.6,289.2,170.4z"/>
	<path class="st5" d="M289.2,170.4c0,0-16.2-48,42.5-70.8C331.7,99.6,284.5,122.4,289.2,170.4z"/>
	<path class="st5" d="M193.2,89.6c0,0-0.9,13,7.8,19c7.9,5.5,7.7,5.5,85.6,46.5l0.5,2.5c0,0-45.4-20.1-73.2-36
		C195.3,111,188.8,109.9,193.2,89.6z"/>
	<path class="st5" d="M276,10.6c0,0,8.2,6.7,13.7,13.4c2.8,4.6,16,29.7,25.9,48.8c6.3,12,11.8,21.2,11.8,21.2l1.7,1
		c0,0-16.7-36.2-29.4-59.4C291.4,21.4,289.4,15.1,276,10.6z"/>
	<path class="st5" d="M199.1,56.2c0,0,2.3,10.8,10.4,18c8.1,7.2,81.6,60.8,81.6,60.8l0.3,6.5c0,0-43.5-33-68.8-53.2
		C205.7,74.9,200.3,72.4,199.1,56.2z"/>
	<path class="st5" d="M232.4,22.3c0,0,9.2,3.5,15.9,11.2c6.7,7.8,59.4,79.7,59.4,79.7l2.5-2c0,0-30-41.1-48.9-64.9
		C248.5,30.5,246,25.7,232.4,22.3z"/>
	<path class="st5" d="M245.9,3.7c0,0,12.8-0.5,19.7,8.1c6.8,8.6,57.5,91.6,57.5,91.6l3.5-1.7c0,0-28.1-49.4-46.7-77
		C267.4,6.4,265.7-0.1,245.9,3.7z"/>
	
		<ellipse transform="matrix(-0.5225 -0.8527 0.8527 -0.5225 315.5711 538.7211)" class="st2" cx="308.6" cy="181" rx="11.5" ry="7.7"/>
	<ellipse transform="matrix(-0.5225 -0.8526 0.8526 -0.5225 317.6003 539.8475)" class="st4" cx="310" cy="181" rx="8.7" ry="6.7"/>
</g>
<g>
	<path class="st7" d="M108.7,139.6c0-0.1-0.3-0.5-0.8-1.2s-1.3-1.5-2.4-2.3c-1.1-0.8-2.6-1.5-4.4-2.2c-1.8-0.6-4.2-1-6.9-0.9
		c-4.4,0-8.7,0.9-13,2.7c-4.3,1.8-8.3,4.2-12.1,7.2c-3.8,3-7.4,6.5-10.6,10.6c-3.2,4-6.1,8.3-8.4,12.9c-2.4,4.6-4.2,9.3-5.5,14.1
		c-1.3,4.8-1.9,9.6-1.9,14.2c0,3.2,0.6,6.2,1.6,9c1,2.7,2.5,5.1,4.4,7c1.9,2,4.2,3.5,7,4.6c2.7,1.1,5.8,1.6,9.3,1.6
		c3,0,6.1-0.5,9.1-1.4c3-0.9,6-2.2,8.8-3.8c2.9-1.6,5.6-3.6,8.2-5.8c2.6-2.2,5.1-4.7,7.4-7.3c2.3-2.6,4.4-5.4,6.2-8.4
		c1.9-3,3.4-6,4.8-9c1.3-3.1,2.3-6.2,3-9.3c0.7-3.1,1-6.1,1-9c0-3.1-0.5-5.8-1.3-8.1c-0.8-2.3-2-4.3-3.5-5.9
		c-1.5-1.6-3.2-2.7-5.2-3.5c-2-0.8-4.2-1.2-6.6-1.1c-2.3,0-4.6,0.5-6.9,1.3c-2.3,0.9-4.5,2-6.6,3.6c-2.1,1.5-4,3.3-5.9,5.4
		c-1.8,2.1-3.4,4.3-4.7,6.8c-1.3,2.5-2.4,5.1-3.1,7.8c-0.7,2.8-1.1,5.6-1.1,8.4c0,2.2,0.3,4.2,0.8,6c0.5,1.8,1.3,3.5,2.2,4.9
		c0.9,1.4,1.9,2.6,3.1,3.5c1.2,0.9,2.4,1.6,3.6,1.9l-0.5,2.2c-1.8-0.2-3.6-0.8-5.4-1.7c-1.8-0.9-3.5-2.2-5-3.8
		c-1.5-1.6-2.7-3.6-3.7-5.9c-1-2.4-1.5-5.1-1.5-8.2c0-2.9,0.4-5.8,1.2-8.7c0.8-2.9,2-5.6,3.5-8.2c1.5-2.6,3.3-5,5.4-7.2
		c2.1-2.2,4.4-4.1,7-5.7c2.6-1.6,5.3-2.9,8.2-3.8c2.9-0.9,5.9-1.4,9-1.4c2.9,0,5.6,0.5,8,1.5c2.4,1,4.4,2.4,6.1,4.3s3,4.1,3.9,6.8
		c0.9,2.7,1.4,5.6,1.4,9c0,3.1-0.3,6.3-1.1,9.6c-0.7,3.3-1.8,6.6-3.2,9.8c-1.4,3.2-3,6.4-5,9.5c-2,3.1-4.1,6-6.5,8.8
		c-2.4,2.8-5,5.3-7.7,7.6c-2.8,2.3-5.7,4.3-8.7,6c-3,1.7-6.2,3-9.4,4c-3.2,1-6.5,1.4-9.7,1.5c-3.8,0-7.4-0.6-10.8-1.8
		c-3.4-1.2-6.3-3.1-8.8-5.5c-2.5-2.4-4.5-5.4-6-9c-1.5-3.6-2.2-7.7-2.3-12.3c0-5.2,0.6-10.2,1.9-15.2c1.3-5,3.1-9.7,5.5-14.2
		c2.4-4.5,5.3-8.6,8.6-12.4c3.4-3.8,7.1-7.1,11.2-9.9c4.1-2.8,8.6-5,13.3-6.5c4.8-1.6,9.7-2.4,14.9-2.4c2.4,0,4.5,0.2,6.4,0.5
		c1.8,0.4,3.5,0.9,4.8,1.4c1.4,0.6,2.5,1.2,3.4,1.9c0.9,0.7,1.7,1.3,2.3,2c0.6,0.6,1,1.1,1.2,1.6c0.3,0.4,0.4,0.7,0.4,0.7
		L108.7,139.6z"/>
	<path class="st7" d="M145.6,194.9c-1.6,1.9-3.2,3.7-4.8,5.4c-1.6,1.6-3.2,3-4.7,4.2c-1.6,1.2-3.1,2.1-4.7,2.8c-1.6,0.7-3.1,1-4.7,1
		c-1.3,0-2.6-0.2-3.6-0.7c-1.1-0.5-2-1.1-2.8-2c-0.8-0.9-1.4-1.9-1.9-3.2c-0.4-1.3-0.7-2.7-0.7-4.2c0-2.5,0.5-5,1.6-7.6
		c1.1-2.6,2.4-5.1,4-7.6c1.6-2.5,3.4-4.8,5.4-7c2-2.2,3.9-4.2,5.7-5.9l2.3,1.6c-1.3,1.9-2.7,4-4.2,6.4c-1.6,2.4-3,4.9-4.4,7.4
		c-1.4,2.6-2.5,5.1-3.5,7.7c-0.9,2.6-1.4,4.9-1.4,7.1c0,1.5,0.3,2.7,0.9,3.7c0.6,1,1.6,1.5,3.2,1.5c1.7,0,3.6-0.7,5.6-2.1
		c2-1.4,4.1-3.1,6.2-5.3c2.1-2.2,4.3-4.7,6.4-7.4c2.1-2.7,4.1-5.5,6-8.3c1.9-2.8,3.6-5.5,5.2-8c1.6-2.5,2.8-4.7,3.8-6.5l3.9,1.9
		c-2,4.1-4,7.9-5.8,11.4c-1.9,3.5-3.5,6.7-5,9.5c-1.4,2.8-2.6,5.2-3.4,7.3c-0.9,2.1-1.3,3.7-1.3,4.9c0,0.5,0.1,0.9,0.3,1.2
		c0.2,0.3,0.6,0.5,1,0.5c1.3,0,2.8-0.6,4.3-1.7c1.6-1.2,3.2-2.7,4.7-4.5c1.6-1.8,3.2-3.8,4.7-5.9c1.5-2.1,2.9-4.1,4.1-6l1.9,1.5
		c-0.2,0.4-0.6,1.1-1.3,2.2c-0.7,1.1-1.5,2.4-2.5,3.8c-1,1.4-2.1,2.9-3.4,4.5c-1.3,1.6-2.6,3-4,4.3c-1.4,1.3-2.9,2.4-4.4,3.2
		c-1.5,0.8-3,1.3-4.5,1.3c-0.9,0-1.7-0.1-2.5-0.5c-0.7-0.3-1.3-0.7-1.8-1.3c-0.5-0.5-0.9-1.1-1.2-1.9c-0.3-0.7-0.4-1.5-0.4-2.2
		c0-0.9,0.1-1.9,0.4-3C144.6,197.3,145,196.1,145.6,194.9z"/>
	<path class="st7" d="M201.5,187.6c-0.5,0.8-1.1,1.9-1.9,3.2c-0.7,1.3-1.5,2.8-2.5,4.3c-0.9,1.6-2,3.1-3.1,4.8
		c-1.1,1.6-2.4,3.1-3.7,4.4c-1.4,1.3-2.8,2.4-4.4,3.2c-1.6,0.8-3.3,1.3-5.1,1.3c-1,0-1.9-0.1-2.8-0.4c-0.9-0.3-1.7-0.8-2.4-1.4
		c-0.7-0.6-1.2-1.4-1.6-2.4c-0.4-0.9-0.6-2-0.6-3.3c0-1.7,0.3-3.6,1-5.5c0.7-1.9,1.5-3.8,2.4-5.5c0.9-1.8,1.8-3.4,2.7-4.9
		c0.9-1.5,1.6-2.7,2-3.6c0.4-0.9,0.6-1.7,0.6-2.3c0-0.5-0.2-0.9-0.5-1.2c-0.3-0.4-0.7-0.7-1.1-1c-0.4-0.3-0.9-0.7-1.4-1.1
		c-0.5-0.4-0.9-0.8-1.2-1.4c-0.9,1.4-1.8,2.9-2.7,4.3c-0.8,1.3-1.7,2.7-2.6,4.2c-0.9,1.6-1.9,3.1-2.7,4.6l-1.9-1.5l11.2-18l1.5,0.8
		c-0.1,0.2-0.2,0.6-0.3,1c-0.2,0.5-0.2,1-0.2,1.5c0,0.4,0.1,0.8,0.2,1.1c0.1,0.4,0.4,0.7,0.8,1c1.4,1.3,2.6,2.2,3.4,2.9
		c0.8,0.7,1.4,1.2,1.8,1.6c0.4,0.4,0.6,0.7,0.7,1c0.1,0.3,0.1,0.6,0.1,1c0,0.4-0.1,0.9-0.2,1.5c-0.1,0.6-0.4,1.3-0.7,2.2
		c-0.3,0.9-0.8,1.9-1.4,3s-1.3,2.5-2.2,4c-0.5,0.9-1,1.9-1.5,2.8c-0.5,0.9-1,1.9-1.4,2.9c-0.4,1-0.7,1.9-1,2.9
		c-0.2,1-0.4,1.9-0.3,2.8c0,0.7,0.1,1.2,0.3,1.6c0.2,0.4,0.5,0.7,0.8,0.9c0.3,0.2,0.7,0.4,1,0.4c0.4,0.1,0.7,0.1,1.1,0.1
		c1.2,0,2.3-0.4,3.5-1.1c1.1-0.7,2.3-1.6,3.4-2.7c1.1-1.1,2.2-2.4,3.2-3.8c1-1.4,2-2.9,3-4.3c0.9-1.5,1.8-2.9,2.6-4.2
		c0.8-1.3,1.5-2.5,2.2-3.5L201.5,187.6z"/>
</g>
<g>
	<path class="st7" d="M618.2,129.6c-2.6,1.9-5,4.2-7.2,6.9c2.2,1.4,4,2.9,5.5,4.5c1.5,1.6,2.7,3.3,3.6,5c0.9,1.7,1.5,3.3,1.9,5
		c0.4,1.6,0.6,3.2,0.6,4.5c0,3.5-0.7,6.5-2,9.1c-1.3,2.6-3.1,4.7-5.2,6.4c-2.2,1.7-4.6,3-7.4,3.8c-2.8,0.8-5.7,1.2-8.6,1.2
		c-3.3,0-6.6-0.4-9.8-1.2c-1.5,3.2-3.1,6.3-4.9,9.4c-1.8,3.1-3.7,6.1-5.7,9c-2.1,2.9-4.3,5.5-6.7,8c-2.4,2.5-5,4.6-7.7,6.4
		c-2.8,1.8-5.7,3.2-8.9,4.2c-3.2,1-6.6,1.5-10.2,1.5c-3.5,0-6.8-0.6-9.7-1.8c-3-1.2-5.5-2.8-7.7-5c-2.2-2.2-3.8-4.9-5-8
		c-1.2-3.2-1.8-6.8-1.8-10.8c0-5.3,0.9-10.3,2.8-15.2c1.8-4.9,4.3-9.4,7.5-13.6c3.2-4.2,6.9-8,11.1-11.5c4.3-3.4,8.9-6.4,13.8-8.8
		c4.9-2.4,10.1-4.3,15.5-5.6c5.4-1.3,10.8-2,16.2-2c4.2,0,8,0.4,11.2,1.1c3.3,0.7,6.2,1.6,8.7,2.8c1.4-1.2,2.9-2.4,4.5-3.5
		c1.6-1.1,3.3-2,5.1-2.9L618.2,129.6z M584.9,170.3c1.6-3.4,3.3-6.7,4.9-9.8c1.6-3.1,3.2-6.1,4.9-8.9c1.7-2.8,3.4-5.5,5.2-7.9
		c1.8-2.5,3.7-4.7,5.8-6.8c-2.3-0.9-4.9-1.6-7.6-2.1c-2.7-0.4-5.7-0.7-8.8-0.7c-4.3,0-8.5,0.5-12.6,1.5c-4.1,1-8.1,2.4-11.9,4.2
		c-3.8,1.8-7.5,3.9-10.9,6.3c-3.5,2.4-6.7,5.1-9.7,8c-3,2.9-5.7,5.9-8.1,9c-2.4,3.1-4.5,6.3-6.2,9.5c-1.7,3.2-3,6.3-3.9,9.5
		c-0.9,3.1-1.4,6.1-1.4,8.9c0,2.7,0.5,5.3,1.5,7.7c1,2.4,2.3,4.4,4.1,6.2c1.7,1.8,3.8,3.1,6.3,4.1c2.4,1,5.1,1.5,8,1.5
		c4.5,0,8.5-0.9,12.1-2.6c3.6-1.8,6.9-4.3,10-7.6c3.1-3.3,6-7.2,8.7-11.8c2.7-4.6,5.6-9.8,8.4-15.4c-3.7-1.5-7.1-3.4-10.2-5.6
		l0.9-1.5c1.7,0.9,3.4,1.7,5.2,2.5C581.2,169,583,169.7,584.9,170.3z M616.9,152.3c0-3.2-0.7-5.9-2-8.1c-1.4-2.2-3.3-4.1-5.7-5.6
		c-3.2,4.2-6.3,9.1-9.3,14.6c-2.9,5.6-6,11.7-9.1,18.6c1,0.2,2.1,0.3,3.1,0.4c1,0.1,2.1,0.1,3.1,0.1c2.7,0,5.2-0.5,7.6-1.4
		c2.4-1,4.5-2.3,6.3-4.1s3.3-3.9,4.3-6.3C616.4,158.1,616.9,155.3,616.9,152.3z"/>
	<path class="st7" d="M656.8,130.1c1.2,0,2.3,0.3,3.1,0.9c0.8,0.6,1.2,1.7,1.2,3.3c0,1.1-0.2,2.4-0.7,3.9c-0.5,1.5-1.1,3.2-1.8,5
		c-0.8,1.8-1.7,3.7-2.7,5.6s-2.2,3.9-3.3,5.9c-1.2,2-2.4,3.9-3.7,5.7c-1.3,1.8-2.6,3.5-3.9,5.1c-2.6,3.2-4.8,5.8-6.7,8
		c-1.9,2.2-3.5,4-4.8,5.5c-1.4,1.5-2.5,2.7-3.4,3.7c-0.9,0.9-1.7,1.7-2.5,2.4c-0.7,0.7-1.4,1.3-2,1.8c-0.6,0.5-1.2,1.2-1.9,1.8
		c-0.3,1.4-0.4,2.6-0.4,3.9c0,1.2,0,2.4,0,3.4c0,3.1,0.5,5.4,1.5,6.9c1,1.5,2.4,2.3,4.2,2.3c1.2,0,2.4-0.3,3.6-0.9
		c1.2-0.6,2.4-1.4,3.7-2.4c1.2-1,2.4-2.1,3.5-3.4c1.1-1.3,2.2-2.5,3.2-3.8c1-1.3,1.9-2.5,2.8-3.8c0.8-1.2,1.5-2.3,2.1-3.1l2,1.5
		c-0.1,0.1-0.5,0.7-1,1.7c-0.6,1-1.4,2.2-2.3,3.5c-1,1.4-2.1,2.9-3.4,4.4c-1.3,1.6-2.7,3-4.3,4.4c-1.5,1.3-3.1,2.5-4.8,3.3
		c-1.7,0.9-3.4,1.3-5.1,1.3c-1.5,0-2.8-0.3-4.2-0.8c-1.3-0.6-2.5-1.4-3.5-2.6c-1-1.2-1.8-2.7-2.4-4.6c-0.6-1.9-0.9-4.1-0.9-6.7
		c0-3.2,0.4-6.6,1.2-10.2c0.8-3.5,1.8-7.1,3.2-10.7c1.3-3.6,2.9-7.1,4.7-10.6c1.8-3.5,3.7-6.8,5.7-9.9c2-3.1,4.1-6,6.3-8.7
		c2.2-2.7,4.3-5,6.5-6.9c2.1-1.9,4.2-3.5,6.1-4.6C653.5,130.6,655.2,130.1,656.8,130.1z M624.8,184.1c3-3.1,6-6.3,8.8-9.5
		c2.8-3.2,5.5-6.4,8-9.5c2.5-3.1,4.8-6.2,6.8-9.2c2.1-3,3.8-5.8,5.3-8.4c1.5-2.6,2.6-5,3.4-7.2c0.8-2.2,1.2-4,1.2-5.6
		c0-0.3-0.1-0.7-0.4-1.1c-0.3-0.5-0.6-0.7-1-0.7c-1.1,0-2.6,0.7-4.4,2.2c-1.8,1.5-3.8,3.4-5.9,5.9c-2.1,2.5-4.3,5.4-6.6,8.8
		c-2.3,3.3-4.4,6.9-6.4,10.7c-2,3.8-3.8,7.7-5.4,11.8C626.7,176.2,625.5,180.2,624.8,184.1z"/>
	<path class="st7" d="M690.3,172.4c-0.5,0.9-1.1,2.1-2,3.6c-0.8,1.5-1.7,3.1-2.7,4.9c-1,1.8-1.9,3.7-2.9,5.6c-1,2-1.9,3.9-2.7,5.7
		c-0.8,1.9-1.5,3.6-2,5.3c-0.5,1.7-0.8,3-0.8,4.2c0,1.1,0.2,1.9,0.7,2.2s1,0.5,1.7,0.5c1,0,2.1-0.3,3.2-0.9c1.1-0.6,2.2-1.4,3.2-2.3
		c1.1-1,2.1-2,3.1-3.2c1-1.2,1.9-2.4,2.8-3.6c0.9-1.2,1.7-2.4,2.4-3.5c0.7-1.1,1.3-2.1,1.8-2.8l1.9,1.5c-0.6,1.1-1.3,2.4-2.1,3.7
		c-0.8,1.3-1.7,2.6-2.7,4c-1,1.3-2,2.6-3.2,3.9c-1.1,1.2-2.3,2.3-3.6,3.3c-1.3,1-2.6,1.7-4,2.3s-2.8,0.8-4.3,0.8
		c-2.1,0-3.7-0.7-4.7-1.9c-1-1.3-1.5-2.9-1.5-5c0-0.1,0-0.5,0-0.9c0-0.5,0.1-0.9,0.1-1.1c-1.8,2.2-3.5,4.1-5.1,5.5
		c-1.6,1.5-3.2,2.6-4.7,3.5c-1.5,0.8-3,1.4-4.4,1.8c-1.4,0.3-2.7,0.5-4,0.5c-1.3,0-2.6-0.2-3.8-0.7c-1.2-0.5-2.2-1.1-3.1-2
		c-0.9-0.9-1.6-1.9-2.1-3.2c-0.5-1.2-0.8-2.7-0.8-4.3c0-2,0.5-4.3,1.4-7c0.9-2.6,2.5-5.4,4.8-8.4c2-2.6,4-4.8,6.1-6.5
		c2.1-1.8,4.2-3.2,6.2-4.3c2-1.1,4-1.8,5.8-2.3c1.8-0.5,3.5-0.7,4.9-0.7c3.3,0,5.7,0.6,7.4,1.7c1.7,1.1,2.7,2.8,3,5
		c0.7-0.9,1.5-1.8,2.2-2.7c0.8-0.9,1.6-1.8,2.4-2.7L690.3,172.4z M673.9,192.6c0.5-0.7,1-1.7,1.7-2.8c0.7-1.2,1.4-2.3,2.1-3.6
		c0.8-1.2,1.5-2.4,2.2-3.5c0.7-1.1,1.3-2.1,1.9-2.9c0-0.3,0-0.8-0.1-1.5c-0.1-0.7-0.3-1.4-0.7-2.2c-0.4-0.7-1-1.4-1.9-1.9
		c-0.8-0.5-2-0.8-3.6-0.8c-1.1,0-2.3,0.2-3.7,0.5c-1.4,0.3-2.8,0.9-4.4,1.7c-1.5,0.8-3.1,1.8-4.8,3.2c-1.6,1.3-3.3,2.9-4.9,4.9
		c-2.5,2.9-4.4,5.9-5.7,8.9c-1.3,3-2,5.6-2,8c0,2,0.4,3.6,1.4,4.7c0.9,1.1,2.2,1.7,3.9,1.7c2,0,3.8-0.4,5.5-1.3
		c1.7-0.9,3.3-2,4.8-3.4c1.5-1.4,2.9-2.9,4.3-4.6C671.3,195.9,672.6,194.2,673.9,192.6z"/>
	<path class="st7" d="M740.5,180.4c0,1.5-0.3,3.1-0.8,4.7c-0.5,1.6-1.2,3.2-2,4.7c-0.8,1.6-1.7,3.1-2.6,4.7c-0.9,1.5-1.8,3-2.6,4.4
		c-0.8,1.4-1.5,2.8-2,4.1c-0.5,1.3-0.8,2.5-0.8,3.5c0,0.8,0.2,1.4,0.5,1.7c0.4,0.3,0.7,0.4,1.2,0.4c1.3,0,2.9-0.7,4.5-2
		c1.7-1.3,3.4-3,5.1-5c1.7-2,3.4-4.2,5.2-6.6c1.7-2.4,3.3-4.6,4.7-6.8l1.9,1.5c-0.3,0.4-0.8,1.3-1.6,2.5c-0.8,1.3-1.7,2.7-2.8,4.3
		c-1.1,1.6-2.3,3.3-3.7,5.1c-1.4,1.8-2.8,3.4-4.4,4.8c-1.6,1.5-3.2,2.7-4.8,3.6c-1.7,1-3.3,1.4-5,1.4c-1,0-1.8-0.2-2.6-0.5
		s-1.4-0.8-2-1.3c-0.5-0.6-1-1.2-1.3-2c-0.3-0.8-0.5-1.6-0.5-2.4c0-1.4,0.3-2.9,0.9-4.5c0.6-1.6,1.4-3.3,2.3-5
		c0.9-1.7,1.9-3.4,3.1-5.1c1.1-1.7,2.1-3.4,3.1-4.9c0.9-1.6,1.7-3,2.3-4.3c0.6-1.3,0.9-2.5,0.9-3.4c0-1.1-0.3-2-0.9-2.8
		c-0.6-0.8-1.4-1.1-2.5-1.1c-1.1,0-2.4,0.5-3.9,1.4c-1.5,0.9-3.2,2.3-5,4.1c-1.9,1.8-3.9,4-6.1,6.7c-2.2,2.6-4.6,5.6-7.1,9
		c-1.5,2-2.9,3.8-4.3,5.6c-0.6,0.8-1.2,1.6-1.8,2.4c-0.6,0.8-1.2,1.6-1.8,2.4c-0.6,0.8-1.2,1.6-1.7,2.3s-1,1.4-1.4,1.9l-4.7-1.9
		l6.3-8.6c0.9-1.2,1.8-2.5,2.7-3.9c0.9-1.4,1.8-2.8,2.8-4.3c0.9-1.5,1.8-3,2.6-4.4c0.8-1.5,1.6-2.9,2.3-4.4c1-2.1,1.8-3.9,2.1-5.3
		c0.4-1.4,0.6-2.5,0.6-3.4c0-1-0.2-1.6-0.5-1.9c-0.4-0.3-0.8-0.5-1.5-0.5c-0.7,0-1.4,0.3-2.3,1c-0.9,0.7-1.8,1.6-2.7,2.7
		c-0.9,1.1-1.9,2.3-2.8,3.7c-0.9,1.4-1.8,2.7-2.7,4.1c-0.9,1.3-1.7,2.6-2.4,3.8c-0.7,1.2-1.4,2.2-1.9,2.9l-1.9-1.5
		c1.8-2.8,3.5-5.4,5-7.8c1.5-2.4,2.9-4.4,4.3-6.1c1.4-1.7,2.7-3,4-4c1.3-0.9,2.7-1.4,4.1-1.4c0.8,0,1.5,0.2,2.3,0.5
		c0.7,0.3,1.4,0.8,1.9,1.4c0.5,0.6,1,1.4,1.3,2.3c0.3,0.9,0.5,1.9,0.5,3.1c0,0.9-0.1,1.9-0.3,2.9c1.6-1.5,3-2.8,4.4-3.8
		c1.4-1,2.6-1.8,3.7-2.4c1.1-0.6,2.2-1,3.1-1.2c1-0.2,1.8-0.4,2.6-0.4c0.7,0,1.5,0.1,2.3,0.4c0.9,0.3,1.7,0.7,2.5,1.4
		c0.8,0.7,1.4,1.6,2,2.8C740.3,177,740.6,178.5,740.5,180.4z"/>
	<path class="st7" d="M767.2,167.3c-0.3,0.4-0.6,0.8-0.8,1.3c-0.3,0.5-0.5,1-0.7,1.7c-0.2,0.6-0.3,1.4-0.3,2.3c0,0.7,0.2,1.8,0.5,3
		c0.4,1.3,0.8,2.8,1.2,4.4c0.4,1.7,0.8,3.5,1.2,5.4c0.4,1.9,0.5,3.9,0.5,6c0,3-0.4,5.7-1.3,8c-0.8,2.3-1.9,4.3-3.3,5.9
		c2.8-1.5,5.5-3.6,8.2-6.4c2.7-2.8,5.4-6.3,8.1-10.6l1.8,1.6c-1.5,2.5-3.3,5-5.2,7.5c-1.9,2.5-4.1,4.7-6.4,6.6
		c-2.3,2-4.8,3.6-7.5,4.8c-2.7,1.2-5.5,1.8-8.5,1.8c-2.7,0-4.9-0.7-6.7-1.9c-1.8-1.3-2.9-3.2-3.4-5.7l1.9-0.4c0,0.2,0.1,0.6,0.3,1
		c0.2,0.5,0.5,1,0.9,1.4c0.4,0.5,1,0.9,1.7,1.2c0.7,0.4,1.6,0.5,2.7,0.5c1.4,0,2.7-0.3,3.8-1c1.1-0.7,2.1-1.5,2.9-2.6
		c0.8-1.1,1.5-2.3,2.1-3.6c0.6-1.4,1-2.8,1.4-4.2c0.3-1.5,0.6-2.9,0.7-4.3c0.1-1.4,0.2-2.6,0.2-3.8c0-1.1,0-2.4-0.1-3.8
		c-0.1-1.4-0.2-2.7-0.3-4c-0.1-1.3-0.2-2.4-0.3-3.3c-0.1-0.9-0.1-1.6-0.1-1.8v-0.1c-0.5,0.5-1,1.2-1.7,2.2c-0.6,1-1.3,2-2.1,3.1
		c-0.7,1.1-1.5,2.3-2.2,3.5s-1.4,2.2-2,3.2s-1.1,1.7-1.4,2.4c-0.4,0.6-0.6,1-0.6,1l-1.9-1.5c0,0,0.5-0.8,1.3-2.3
		c0.9-1.5,2-3.4,3.4-5.7c1.4-2.3,3-4.8,4.8-7.6c1.8-2.8,3.6-5.5,5.5-8.1l2.1,1.8C767.7,166.6,767.5,167,767.2,167.3z"/>
</g>
</svg>
